999
dxfrw 0.6.3
  0
SECTION
  2
HEADER
  9
$ACADVER
  1
AC1021
  9
$DWGCODEPAGE
  3
ANSI_1252
  9
$INSBASE
 10
0
 20
0
 30
0
  9
$EXTMIN
 10
-41.04999542236328
 20
-24.25
 30
0
  9
$EXTMAX
 10
166.3089904785156
 20
41.05000305175781
 30
0
  9
$LIMMIN
 10
0
 20
0
  9
$LIMMAX
 10
420
 20
297
  9
$ORTHOMODE
 70
    0
  9
$REGENMODE
 70
    1
  9
$FILLMODE
 70
    1
  9
$QTEXTMODE
 70
    0
  9
$MIRRTEXT
 70
    0
  9
$LTSCALE
 40
1
  9
$ATTMODE
 70
    0
  9
$TEXTSIZE
 40
2.5
  9
$TRACEWID
 40
15.68
  9
$TEXTSTYLE
  7
STANDARD
  9
$CLAYER
  8
0
  9
$CELTYPE
  6
BYLAYER
  9
$CECOLOR
 62
  256
  9
$CELTSCALE
 40
1
  9
$DISPSILH
 70
    0
  9
$DIMSCALE
 40
2.5
  9
$DIMASZ
 40
2.5
  9
$DIMEXO
 40
0.625
  9
$DIMDLI
 40
3.75
  9
$DIMRND
 40
0
  9
$DIMDLE
 40
0
  9
$DIMEXE
 40
1.25
  9
$DIMTP
 40
0
  9
$DIMTM
 40
0
  9
$DIMTXT
 40
2.5
  9
$DIMCEN
 40
2.5
  9
$DIMTSZ
 40
0
  9
$DIMTOL
 70
    0
  9
$DIMLIM
 70
    0
  9
$DIMTIH
 70
    0
  9
$DIMTOH
 70
    0
  9
$DIMSE1
 70
    0
  9
$DIMSE2
 70
    0
  9
$DIMTAD
 70
    1
  9
$DIMZIN
 70
    8
  9
$DIMBLK
  1

  9
$DIMASO
 70
    1
  9
$DIMSHO
 70
    1
  9
$DIMPOST
  1

  9
$DIMAPOST
  1

  9
$DIMALT
 70
    0
  9
$DIMALTD
 70
    3
  9
$DIMALTF
 40
0.03937
  9
$DIMLFAC
 40
1
  9
$DIMTOFL
 70
    1
  9
$DIMTVP
 40
0
  9
$DIMTIX
 70
    0
  9
$DIMSOXD
 70
    0
  9
$DIMSAH
 70
    0
  9
$DIMBLK1
  1

  9
$DIMBLK2
  1

  9
$DIMSTYLE
  2
Standard
  9
$DIMCLRD
 70
    0
  9
$DIMCLRE
 70
    0
  9
$DIMCLRT
 70
    0
  9
$DIMTFAC
 40
1
  9
$DIMGAP
 40
0.625
  9
$DIMJUST
 70
    0
  9
$DIMSD1
 70
    0
  9
$DIMSD2
 70
    0
  9
$DIMTOLJ
 70
    0
  9
$DIMTZIN
 70
    8
  9
$DIMALTZ
 70
    0
  9
$DIMALTTZ
 70
    0
  9
$DIMUPT
 70
    0
  9
$DIMDEC
 70
    2
  9
$DIMTDEC
 70
    2
  9
$DIMALTU
 70
    2
  9
$DIMALTTD
 70
    3
  9
$DIMTXSTY
  7
STANDARD
  9
$DIMAUNIT
 70
    0
  9
$DIMADEC
 70
    0
  9
$DIMALTRND
 40
0
  9
$DIMAZIN
 70
    0
  9
$DIMDSEP
 70
   44
  9
$DIMATFIT
 70
    3
  9
$DIMFRAC
 70
    0
  9
$DIMLDRBLK
  1
STANDARD
  9
$DIMLUNIT
 70
    2
  9
$DIMLWD
 70
   -2
  9
$DIMLWE
 70
   -2
  9
$DIMTMOVE
 70
    0
  9
$DIMFXL
 40
1
  9
$DIMFXLON
 70
    0
  9
$DIMJOGANG
 40
0.7854
  9
$DIMTFILL
 70
    0
  9
$DIMTFILLCLR
 70
    0
  9
$DIMARCSYM
 70
    0
  9
$DIMLTYPE
  6

  9
$DIMLTEX1
  6

  9
$DIMLTEX2
  6

  9
$LUNITS
 70
    2
  9
$LUPREC
 70
    4
  9
$SKETCHINC
 40
1
  9
$FILLETRAD
 40
0
  9
$AUNITS
 70
    0
  9
$AUPREC
 70
    2
  9
$MENU
  1
.
  9
$ELEVATION
 40
0
  9
$PELEVATION
 40
0
  9
$THICKNESS
 40
0
  9
$LIMCHECK
 70
    0
  9
$CHAMFERA
 40
0
  9
$CHAMFERB
 40
0
  9
$CHAMFERC
 40
0
  9
$CHAMFERD
 40
0
  9
$SKPOLY
 70
    0
  9
$USRTIMER
 70
    1
  9
$ANGBASE
 50
0
  9
$ANGDIR
 70
    0
  9
$PDMODE
 70
   34
  9
$PDSIZE
 40
0
  9
$PLINEWID
 40
0
  9
$SPLFRAME
 70
    0
  9
$SPLINETYPE
 70
    2
  9
$SPLINESEGS
 70
    8
  9
$HANDSEED
  5
20000
  9
$SURFTAB1
 70
    6
  9
$SURFTAB2
 70
    6
  9
$SURFTYPE
 70
    6
  9
$SURFU
 70
    6
  9
$SURFV
 70
    6
  9
$UCSBASE
  2

  9
$UCSNAME
  2

  9
$UCSORG
 10
0
 20
0
 30
0
  9
$UCSXDIR
 10
1
 20
0
 30
0
  9
$UCSYDIR
 10
0
 20
1
 30
0
  9
$UCSORTHOREF
  2

  9
$UCSORTHOVIEW
 70
    0
  9
$UCSORGTOP
 10
0
 20
0
 30
0
  9
$UCSORGBOTTOM
 10
0
 20
0
 30
0
  9
$UCSORGLEFT
 10
0
 20
0
 30
0
  9
$UCSORGRIGHT
 10
0
 20
0
 30
0
  9
$UCSORGFRONT
 10
0
 20
0
 30
0
  9
$UCSORGBACK
 10
0
 20
0
 30
0
  9
$PUCSBASE
  2

  9
$PUCSNAME
  2

  9
$PUCSORG
 10
0
 20
0
 30
0
  9
$PUCSXDIR
 10
1
 20
0
 30
0
  9
$PUCSYDIR
 10
0
 20
1
 30
0
  9
$PUCSORTHOREF
  2

  9
$PUCSORTHOVIEW
 70
    0
  9
$PUCSORGTOP
 10
0
 20
0
 30
0
  9
$PUCSORGBOTTOM
 10
0
 20
0
 30
0
  9
$PUCSORGLEFT
 10
0
 20
0
 30
0
  9
$PUCSORGRIGHT
 10
0
 20
0
 30
0
  9
$PUCSORGFRONT
 10
0
 20
0
 30
0
  9
$PUCSORGBACK
 10
0
 20
0
 30
0
  9
$USERI1
 70
    0
  9
$USERI2
 70
    0
  9
$USERI3
 70
    0
  9
$USERI4
 70
    0
  9
$USERI5
 70
    0
  9
$USERR1
 40
0
  9
$USERR2
 40
0
  9
$USERR3
 40
0
  9
$USERR4
 40
0
  9
$USERR5
 40
0
  9
$WORLDVIEW
 70
    1
  9
$SHADEDGE
 70
    3
  9
$SHADEDIF
 70
   70
  9
$TILEMODE
 70
    1
  9
$MAXACTVP
 70
   64
  9
$PINSBASE
 10
0
 20
0
 30
0
  9
$PLIMCHECK
 70
    0
  9
$PEXTMIN
 10
0
 20
0
 30
0
  9
$PEXTMAX
 10
0
 20
0
 30
0
  9
$GRIDMODE
 70
    1
  9
$SNAPSTYLE
 70
    0
  9
$PLIMMIN
 10
0
 20
0
  9
$PLIMMAX
 10
210
 20
297
  9
$UNITMODE
 70
    0
  9
$VISRETAIN
 70
    1
  9
$PLINEGEN
 70
    0
  9
$PSLTSCALE
 70
    1
  9
$TREEDEPTH
 70
 3020
  9
$CMLSTYLE
  2
Standard
  9
$CMLJUST
 70
    0
  9
$CMLSCALE
 40
20
  9
$PROXYGRAPHICS
 70
    1
  9
$MEASUREMENT
 70
    1
  9
$CELWEIGHT
370
   -1
  9
$ENDCAPS
280
    0
  9
$JOINSTYLE
280
    0
  9
$LWDISPLAY
290
    0
  9
$INSUNITS
 70
    4
  9
$HYPERLINKBASE
  1

  9
$STYLESHEET
  1

  9
$XEDIT
290
    1
  9
$CEPSNTYPE
380
    0
  9
$PSTYLEMODE
290
    1
  9
$EXTNAMES
290
    1
  9
$PSVPSCALE
 40
1
  9
$OLESTARTUP
290
    0
  9
$SORTENTS
280
  127
  9
$INDEXCTL
280
    0
  9
$HIDETEXT
280
    1
  9
$XCLIPFRAME
290
    0
  9
$HALOGAP
280
    0
  9
$OBSCOLOR
 70
  257
  9
$OBSLTYPE
280
    0
  9
$INTERSECTIONDISPLAY
280
    0
  9
$INTERSECTIONCOLOR
 70
  257
  9
$DIMASSOC
280
    1
  9
$PROJECTNAME
  1

  9
$CAMERADISPLAY
290
    0
  9
$LENSLENGTH
 40
50
  9
$CAMERAHEIGHT
 40
0
  9
$STEPSPERSEC
 40
2
  9
$STEPSIZE
 40
50
  9
$3DDWFPREC
 40
2
  9
$PSOLWIDTH
 40
5
  9
$PSOLHEIGHT
 40
80
  9
$LOFTANG1
 40
1.570796326794897
  9
$LOFTANG2
 40
1.570796326794897
  9
$LOFTMAG1
 40
0
  9
$LOFTMAG2
 40
0
  9
$LOFTPARAM
 70
    7
  9
$LOFTNORMALS
280
    1
  9
$LATITUDE
 40
1
  9
$LONGITUDE
 40
1
  9
$NORTHDIRECTION
 40
0
  9
$TIMEZONE
 70
-8000
  9
$LIGHTGLYPHDISPLAY
280
    1
  9
$TILEMODELIGHTSYNCH
280
    1
  9
$SOLIDHIST
280
    1
  9
$SHOWHIST
280
    1
  9
$DWFFRAME
280
    2
  9
$DGNFRAME
280
    0
  9
$REALWORLDSCALE
290
    1
  9
$INTERFERECOLOR
 62
    1
  9
$CSHADOW
280
    0
  9
$SHADOWPLANELOCATION
 40
0
  0
ENDSEC
  0
SECTION
  2
CLASSES
  0
ENDSEC
  0
SECTION
  2
TABLES
  0
TABLE
  2
VPORT
  5
8
330
0
100
AcDbSymbolTable
 70
    1
  0
VPORT
  5
31
330
2
100
AcDbSymbolTableRecord
100
AcDbViewportTableRecord
  2
*ACTIVE
 70
    0
 10
0
 20
0
 11
1
 21
1
 12
146.5357237520129
 22
52.98197178004375
 13
0
 23
0
 14
10
 24
10
 15
10
 25
10
 16
0
 26
0
 36
1
 17
0
 27
0
 37
0
 40
191.6419970242123
 41
1.975093399750934
 42
50
 43
0
 44
0
 50
0
 51
0
 71
    0
 72
  100
 73
    1
 74
    3
 75
    0
 76
    1
 77
    0
 78
    0
281
    0
 65
    1
110
0
120
0
130
0
111
1
121
0
131
0
112
0
122
1
132
0
 79
    0
146
0
348
10020
 60
    7
 61
    5
292
1
282
    1
141
0
142
0
 63
  250
421
3358443
  0
ENDTAB
  0
TABLE
  2
LTYPE
  5
5
330
0
100
AcDbSymbolTable
 70
    4
  0
LTYPE
  5
14
330
5
100
AcDbSymbolTableRecord
100
AcDbLinetypeTableRecord
  2
ByBlock
 70
    0
  3

 72
   65
 73
    0
 40
0
  0
LTYPE
  5
15
330
5
100
AcDbSymbolTableRecord
100
AcDbLinetypeTableRecord
  2
ByLayer
 70
    0
  3

 72
   65
 73
    0
 40
0
  0
LTYPE
  5
16
330
5
100
AcDbSymbolTableRecord
100
AcDbLinetypeTableRecord
  2
Continuous
 70
    0
  3
Solid line
 72
   65
 73
    0
 40
0
  0
LTYPE
  5
32
330
5
100
AcDbSymbolTableRecord
100
AcDbLinetypeTableRecord
  2
DOT
 70
    0
  3
Dot . . . . . . . . . . . . . . . . . . . . . .
 72
   65
 73
    2
 40
6.35
 49
0
 74
    0
 49
-6.35
 74
    0
  0
LTYPE
  5
33
330
5
100
AcDbSymbolTableRecord
100
AcDbLinetypeTableRecord
  2
DOTTINY
 70
    0
  3
Dot (.15x) .....................................
 72
   65
 73
    2
 40
0.9525
 49
0
 74
    0
 49
-0.9525
 74
    0
  0
LTYPE
  5
34
330
5
100
AcDbSymbolTableRecord
100
AcDbLinetypeTableRecord
  2
DOT2
 70
    0
  3
Dot (.5x) .....................................
 72
   65
 73
    2
 40
3.175
 49
0
 74
    0
 49
-3.175
 74
    0
  0
LTYPE
  5
35
330
5
100
AcDbSymbolTableRecord
100
AcDbLinetypeTableRecord
  2
DOTX2
 70
    0
  3
Dot (2x) .  .  .  .  .  .  .  .  .  .  .  .  .
 72
   65
 73
    2
 40
12.7
 49
0
 74
    0
 49
-12.7
 74
    0
  0
LTYPE
  5
36
330
5
100
AcDbSymbolTableRecord
100
AcDbLinetypeTableRecord
  2
DASHED
 70
    0
  3
Dashed _ _ _ _ _ _ _ _ _ _ _ _ _ _ _ _ _
 72
   65
 73
    2
 40
19.05
 49
12.7
 74
    0
 49
-6.35
 74
    0
  0
LTYPE
  5
37
330
5
100
AcDbSymbolTableRecord
100
AcDbLinetypeTableRecord
  2
DASHEDTINY
 70
    0
  3
Dashed (.15x) _ _ _ _ _ _ _ _ _ _ _ _ _ _ _ _ _
 72
   65
 73
    2
 40
2.8575
 49
1.905
 74
    0
 49
-0.9525
 74
    0
  0
LTYPE
  5
38
330
5
100
AcDbSymbolTableRecord
100
AcDbLinetypeTableRecord
  2
DASHED2
 70
    0
  3
Dashed (.5x) _ _ _ _ _ _ _ _ _ _ _ _ _ _ _ _ _
 72
   65
 73
    2
 40
9.524999999999999
 49
6.35
 74
    0
 49
-3.175
 74
    0
  0
LTYPE
  5
39
330
5
100
AcDbSymbolTableRecord
100
AcDbLinetypeTableRecord
  2
DASHEDX2
 70
    0
  3
Dashed (2x) ____  ____  ____  ____  ____  ___
 72
   65
 73
    2
 40
38.09999999999999
 49
25.4
 74
    0
 49
-12.7
 74
    0
  0
LTYPE
  5
3A
330
5
100
AcDbSymbolTableRecord
100
AcDbLinetypeTableRecord
  2
DASHDOT
 70
    0
  3
Dash dot __ . __ . __ . __ . __ . __ . __ . __
 72
   65
 73
    4
 40
25.4
 49
12.7
 74
    0
 49
-6.35
 74
    0
 49
0
 74
    0
 49
-6.35
 74
    0
  0
LTYPE
  5
3B
330
5
100
AcDbSymbolTableRecord
100
AcDbLinetypeTableRecord
  2
DASHDOTTINY
 70
    0
  3
Dash dot (.15x) _._._._._._._._._._._._._._._.
 72
   65
 73
    4
 40
3.81
 49
1.905
 74
    0
 49
-0.9525
 74
    0
 49
0
 74
    0
 49
-0.9525
 74
    0
  0
LTYPE
  5
3C
330
5
100
AcDbSymbolTableRecord
100
AcDbLinetypeTableRecord
  2
DASHDOT2
 70
    0
  3
Dash dot (.5x) _._._._._._._._._._._._._._._.
 72
   65
 73
    4
 40
12.7
 49
6.35
 74
    0
 49
-3.175
 74
    0
 49
0
 74
    0
 49
-3.175
 74
    0
  0
LTYPE
  5
3D
330
5
100
AcDbSymbolTableRecord
100
AcDbLinetypeTableRecord
  2
DASHDOTX2
 70
    0
  3
Dash dot (2x) ____  .  ____  .  ____  .  ___
 72
   65
 73
    4
 40
50.8
 49
25.4
 74
    0
 49
-12.7
 74
    0
 49
0
 74
    0
 49
-12.7
 74
    0
  0
LTYPE
  5
3E
330
5
100
AcDbSymbolTableRecord
100
AcDbLinetypeTableRecord
  2
DIVIDE
 70
    0
  3
Divide ____ . . ____ . . ____ . . ____ . . ____
 72
   65
 73
    6
 40
31.75
 49
12.7
 74
    0
 49
-6.35
 74
    0
 49
0
 74
    0
 49
-6.35
 74
    0
 49
0
 74
    0
 49
-6.35
 74
    0
  0
LTYPE
  5
3F
330
5
100
AcDbSymbolTableRecord
100
AcDbLinetypeTableRecord
  2
DIVIDETINY
 70
    0
  3
Divide (.15x) __..__..__..__..__..__..__..__.._
 72
   65
 73
    6
 40
4.7625
 49
1.905
 74
    0
 49
-0.9525
 74
    0
 49
0
 74
    0
 49
-0.9525
 74
    0
 49
0
 74
    0
 49
-0.9525
 74
    0
  0
LTYPE
  5
40
330
5
100
AcDbSymbolTableRecord
100
AcDbLinetypeTableRecord
  2
DIVIDE2
 70
    0
  3
Divide (.5x) __..__..__..__..__..__..__..__.._
 72
   65
 73
    6
 40
15.875
 49
6.35
 74
    0
 49
-3.175
 74
    0
 49
0
 74
    0
 49
-3.175
 74
    0
 49
0
 74
    0
 49
-3.175
 74
    0
  0
LTYPE
  5
41
330
5
100
AcDbSymbolTableRecord
100
AcDbLinetypeTableRecord
  2
DIVIDEX2
 70
    0
  3
Divide (2x) ________  .  .  ________  .  .  _
 72
   65
 73
    6
 40
63.5
 49
25.4
 74
    0
 49
-12.7
 74
    0
 49
0
 74
    0
 49
-12.7
 74
    0
 49
0
 74
    0
 49
-12.7
 74
    0
  0
LTYPE
  5
42
330
5
100
AcDbSymbolTableRecord
100
AcDbLinetypeTableRecord
  2
BORDER
 70
    0
  3
Border __ __ . __ __ . __ __ . __ __ . __ __ .
 72
   65
 73
    6
 40
44.45
 49
12.7
 74
    0
 49
-6.35
 74
    0
 49
12.7
 74
    0
 49
-6.35
 74
    0
 49
0
 74
    0
 49
-6.35
 74
    0
  0
LTYPE
  5
43
330
5
100
AcDbSymbolTableRecord
100
AcDbLinetypeTableRecord
  2
BORDERTINY
 70
    0
  3
Border (.15x) __.__.__.__.__.__.__.__.__.__.__.
 72
   65
 73
    6
 40
6.6675
 49
1.905
 74
    0
 49
-0.9525
 74
    0
 49
1.905
 74
    0
 49
-0.9525
 74
    0
 49
0
 74
    0
 49
-0.9525
 74
    0
  0
LTYPE
  5
44
330
5
100
AcDbSymbolTableRecord
100
AcDbLinetypeTableRecord
  2
BORDER2
 70
    0
  3
Border (.5x) __.__.__.__.__.__.__.__.__.__.__.
 72
   65
 73
    6
 40
22.225
 49
6.35
 74
    0
 49
-3.175
 74
    0
 49
6.35
 74
    0
 49
-3.175
 74
    0
 49
0
 74
    0
 49
-3.175
 74
    0
  0
LTYPE
  5
45
330
5
100
AcDbSymbolTableRecord
100
AcDbLinetypeTableRecord
  2
BORDERX2
 70
    0
  3
Border (2x) ____  ____  .  ____  ____  .  ___
 72
   65
 73
    6
 40
88.89999999999999
 49
25.4
 74
    0
 49
-12.7
 74
    0
 49
25.4
 74
    0
 49
-12.7
 74
    0
 49
0
 74
    0
 49
-12.7
 74
    0
  0
LTYPE
  5
46
330
5
100
AcDbSymbolTableRecord
100
AcDbLinetypeTableRecord
  2
CENTER
 70
    0
  3
Center ____ _ ____ _ ____ _ ____ _ ____ _ ____
 72
   65
 73
    4
 40
50.8
 49
31.75
 74
    0
 49
-6.35
 74
    0
 49
6.35
 74
    0
 49
-6.35
 74
    0
  0
LTYPE
  5
47
330
5
100
AcDbSymbolTableRecord
100
AcDbLinetypeTableRecord
  2
CENTERTINY
 70
    0
  3
Center (.15x) ___ _ ___ _ ___ _ ___ _ ___ _ ___
 72
   65
 73
    4
 40
7.62
 49
4.7625
 74
    0
 49
-0.9525
 74
    0
 49
0.9525
 74
    0
 49
-0.9525
 74
    0
  0
LTYPE
  5
48
330
5
100
AcDbSymbolTableRecord
100
AcDbLinetypeTableRecord
  2
CENTER2
 70
    0
  3
Center (.5x) ___ _ ___ _ ___ _ ___ _ ___ _ ___
 72
   65
 73
    4
 40
28.575
 49
19.05
 74
    0
 49
-3.175
 74
    0
 49
3.175
 74
    0
 49
-3.175
 74
    0
  0
LTYPE
  5
49
330
5
100
AcDbSymbolTableRecord
100
AcDbLinetypeTableRecord
  2
CENTERX2
 70
    0
  3
Center (2x) ________  __  ________  __  _____
 72
   65
 73
    4
 40
101.6
 49
63.5
 74
    0
 49
-12.7
 74
    0
 49
12.7
 74
    0
 49
-12.7
 74
    0
  0
ENDTAB
  0
TABLE
  2
LAYER
  5
2
330
0
100
AcDbSymbolTable
 70
    1
  0
LAYER
  5
10
330
2
100
AcDbSymbolTableRecord
100
AcDbLayerTableRecord
  2
0
 70
    0
 62
    7
  6
CONTINUOUS
370
    0
390
F
  0
LAYER
  5
4A
330
2
100
AcDbSymbolTableRecord
100
AcDbLayerTableRecord
  2
PYDXF
 70
    0
 62
    7
  6
CONTINUOUS
370
   -3
390
F
  0
ENDTAB
  0
TABLE
  2
STYLE
  5
3
330
0
100
AcDbSymbolTable
 70
    3
  0
STYLE
  5
4B
330
2
100
AcDbSymbolTableRecord
100
AcDbTextStyleTableRecord
  2
Standard
 70
    0
 40
0
 41
1
 50
0
 71
    0
 42
1
  3
txt
  4

  0
ENDTAB
  0
TABLE
  2
VIEW
  5
6
330
0
100
AcDbSymbolTable
 70
    0
  0
ENDTAB
  0
TABLE
  2
UCS
  5
7
330
0
100
AcDbSymbolTable
 70
    0
  0
ENDTAB
  0
TABLE
  2
APPID
  5
9
330
0
100
AcDbSymbolTable
 70
    1
  0
APPID
  5
12
330
9
100
AcDbSymbolTableRecord
100
AcDbRegAppTableRecord
  2
ACAD
 70
    0
  0
APPID
  5
4C
330
9
100
AcDbSymbolTableRecord
100
AcDbRegAppTableRecord
  2
LibreCad
 70
    0
  0
ENDTAB
  0
TABLE
  2
DIMSTYLE
  5
A
330
0
100
AcDbSymbolTable
 70
    1
100
AcDbDimStyleTable
 71
    1
  0
DIMSTYLE
105
4D
330
A
100
AcDbSymbolTableRecord
100
AcDbDimStyleTableRecord
  2
Standard
 70
    0
 40
1
 41
2.5
 42
0.625
 43
0.38
 44
1.25
 45
0
 46
0
 47
0
 48
0
 49
1
140
2.5
141
0.09
142
2.5
143
25.4
144
1
145
0
146
1
147
0.625
148
0
 71
    0
 72
    0
 73
    0
 74
    1
 75
    0
 76
    0
 77
    0
 78
    1
 79
    0
170
    0
171
    2
172
    0
173
    0
174
    0
175
    0
176
    0
177
    0
178
    0
179
    0
271
    2
272
    4
273
    2
274
    2
275
    0
276
    0
277
    2
278
    0
279
    0
280
    0
281
    0
282
    0
283
    1
284
    0
285
    0
286
    0
288
    0
289
    3
340
standard
341

371
   -2
372
   -2
  0
ENDTAB
  0
TABLE
  2
BLOCK_RECORD
  5
1
330
0
100
AcDbSymbolTable
 70
    2
  0
BLOCK_RECORD
  5
1F
330
1
100
AcDbSymbolTableRecord
100
AcDbBlockTableRecord
  2
*Model_Space
 70
    0
280
    1
281
    0
  0
BLOCK_RECORD
  5
1E
330
1
100
AcDbSymbolTableRecord
100
AcDbBlockTableRecord
  2
*Paper_Space
 70
    0
280
    1
281
    0
  0
ENDTAB
  0
ENDSEC
  0
SECTION
  2
BLOCKS
  0
BLOCK
  5
20
330
1F
100
AcDbEntity
  8
0
100
AcDbBlockBegin
  2
*Model_Space
 70
    0
 10
0
 20
0
 30
0
  3
*Model_Space
  1

  0
ENDBLK
  5
21
330
1F
100
AcDbEntity
  8
0
100
AcDbBlockEnd
  0
BLOCK
  5
1C
330
1B
100
AcDbEntity
  8
0
100
AcDbBlockBegin
  2
*Paper_Space
 70
    0
 10
0
 20
0
 30
0
  3
*Paper_Space
  1

  0
ENDBLK
  5
1D
330
1F
100
AcDbEntity
  8
0
100
AcDbBlockEnd
  0
ENDSEC
  0
SECTION
  2
ENTITIES
  0
LINE
  5
4E
100
AcDbEntity
  8
0
  6
ByLayer
 62
  256
370
   -1
100
AcDbLine
 10
83.16000366210938
 20
-12.0000057220459
 11
83.05520629882812
 21
-13.59895133972168
  0
LINE
  5
4F
100
AcDbEntity
  8
0
  6
ByLayer
 62
  256
370
   -1
100
AcDbLine
 10
83.05520629882812
 20
-13.59895133972168
 11
82.74259185791016
 21
-15.17053890228271
  0
LINE
  5
50
100
AcDbEntity
  8
0
  6
ByLayer
 62
  256
370
   -1
100
AcDbLine
 10
82.74259185791016
 20
-15.17053890228271
 11
82.22752380371094
 21
-16.6878776550293
  0
LINE
  5
51
100
AcDbEntity
  8
0
  6
ByLayer
 62
  256
370
   -1
100
AcDbLine
 10
82.22752380371094
 20
-16.6878776550293
 11
81.51881408691406
 21
-18.12500381469727
  0
LINE
  5
52
100
AcDbEntity
  8
0
  6
ByLayer
 62
  256
370
   -1
100
AcDbLine
 10
81.51881408691406
 20
-18.12500381469727
 11
80.62857818603516
 21
-19.45733261108398
  0
LINE
  5
53
100
AcDbEntity
  8
0
  6
ByLayer
 62
  256
370
   -1
100
AcDbLine
 10
80.62857818603516
 20
-19.45733261108398
 11
79.57205963134766
 21
-20.66206169128418
  0
LINE
  5
54
100
AcDbEntity
  8
0
  6
ByLayer
 62
  256
370
   -1
100
AcDbLine
 10
79.57205963134766
 20
-20.66206169128418
 11
78.36732482910156
 21
-21.71858215332031
  0
LINE
  5
55
100
AcDbEntity
  8
0
  6
ByLayer
 62
  256
370
   -1
100
AcDbLine
 10
78.36732482910156
 20
-21.71858215332031
 11
77.03499603271484
 21
-22.60881423950195
  0
LINE
  5
56
100
AcDbEntity
  8
0
  6
ByLayer
 62
  256
370
   -1
100
AcDbLine
 10
77.03499603271484
 20
-22.60881423950195
 11
75.59786987304688
 21
-23.31752777099609
  0
LINE
  5
57
100
AcDbEntity
  8
0
  6
ByLayer
 62
  256
370
   -1
100
AcDbLine
 10
75.59786987304688
 20
-23.31752777099609
 11
74.08052825927734
 21
-23.83259201049805
  0
LINE
  5
58
100
AcDbEntity
  8
0
  6
ByLayer
 62
  256
370
   -1
100
AcDbLine
 10
74.08052825927734
 20
-23.83259201049805
 11
72.50894165039062
 21
-24.14520072937012
  0
LINE
  5
59
100
AcDbEntity
  8
0
  6
ByLayer
 62
  256
370
   -1
100
AcDbLine
 10
72.50894165039062
 20
-24.14520072937012
 11
70.90999603271484
 21
-24.25
  0
LINE
  5
5A
100
AcDbEntity
  8
0
  6
ByLayer
 62
  256
370
   -1
100
AcDbLine
 10
70.90999603271484
 20
-24.25
 11
69.31105041503906
 21
-24.14519882202148
  0
LINE
  5
5B
100
AcDbEntity
  8
0
  6
ByLayer
 62
  256
370
   -1
100
AcDbLine
 10
69.31105041503906
 20
-24.14519882202148
 11
67.73946380615234
 21
-23.83259010314941
  0
LINE
  5
5C
100
AcDbEntity
  8
0
  6
ByLayer
 62
  256
370
   -1
100
AcDbLine
 10
67.73946380615234
 20
-23.83259010314941
 11
66.22212982177734
 21
-23.3175220489502
  0
LINE
  5
5D
100
AcDbEntity
  8
0
  6
ByLayer
 62
  256
370
   -1
100
AcDbLine
 10
66.22212982177734
 20
-23.3175220489502
 11
64.78499603271484
 21
-22.60880851745605
  0
LINE
  5
5E
100
AcDbEntity
  8
0
  6
ByLayer
 62
  256
370
   -1
100
AcDbLine
 10
64.78499603271484
 20
-22.60880851745605
 11
63.45267105102539
 21
-21.71857452392578
  0
LINE
  5
5F
100
AcDbEntity
  8
0
  6
ByLayer
 62
  256
370
   -1
100
AcDbLine
 10
63.45267105102539
 20
-21.71857452392578
 11
62.24794006347656
 21
-20.66205406188965
  0
LINE
  5
60
100
AcDbEntity
  8
0
  6
ByLayer
 62
  256
370
   -1
100
AcDbLine
 10
62.24794006347656
 20
-20.66205406188965
 11
61.19142150878906
 21
-19.45732307434082
  0
LINE
  5
61
100
AcDbEntity
  8
0
  6
ByLayer
 62
  256
370
   -1
100
AcDbLine
 10
61.19142150878906
 20
-19.45732307434082
 11
60.30118942260742
 21
-18.12499618530273
  0
LINE
  5
62
100
AcDbEntity
  8
0
  6
ByLayer
 62
  256
370
   -1
100
AcDbLine
 10
60.30118942260742
 20
-18.12499618530273
 11
59.59247589111328
 21
-16.6878662109375
  0
LINE
  5
63
100
AcDbEntity
  8
0
  6
ByLayer
 62
  256
370
   -1
100
AcDbLine
 10
59.59247589111328
 20
-16.6878662109375
 11
59.07741165161133
 21
-15.17052745819092
  0
LINE
  5
64
100
AcDbEntity
  8
0
  6
ByLayer
 62
  256
370
   -1
100
AcDbLine
 10
59.07741165161133
 20
-15.17052745819092
 11
58.76480102539062
 21
-13.59893989562988
  0
LINE
  5
65
100
AcDbEntity
  8
0
  6
ByLayer
 62
  256
370
   -1
100
AcDbLine
 10
58.76480102539062
 20
-13.59893989562988
 11
58.66000366210938
 21
-11.9999942779541
  0
LINE
  5
66
100
AcDbEntity
  8
0
  6
ByLayer
 62
  256
370
   -1
100
AcDbLine
 10
58.66000366210938
 20
-11.9999942779541
 11
58.76480484008789
 21
-10.40104866027832
  0
LINE
  5
67
100
AcDbEntity
  8
0
  6
ByLayer
 62
  256
370
   -1
100
AcDbLine
 10
58.76480484008789
 20
-10.40104866027832
 11
59.07741546630859
 21
-8.829461097717285
  0
LINE
  5
68
100
AcDbEntity
  8
0
  6
ByLayer
 62
  256
370
   -1
100
AcDbLine
 10
59.07741546630859
 20
-8.829461097717285
 11
59.59248352050781
 21
-7.312122821807861
  0
LINE
  5
69
100
AcDbEntity
  8
0
  6
ByLayer
 62
  256
370
   -1
100
AcDbLine
 10
59.59248352050781
 20
-7.312122821807861
 11
60.30119323730469
 21
-5.874995231628418
  0
LINE
  5
6A
100
AcDbEntity
  8
0
  6
ByLayer
 62
  256
370
   -1
100
AcDbLine
 10
60.30119323730469
 20
-5.874995231628418
 11
61.19142913818359
 21
-4.542667865753174
  0
LINE
  5
6B
100
AcDbEntity
  8
0
  6
ByLayer
 62
  256
370
   -1
100
AcDbLine
 10
61.19142913818359
 20
-4.542667865753174
 11
62.24794769287109
 21
-3.33793830871582
  0
LINE
  5
6C
100
AcDbEntity
  8
0
  6
ByLayer
 62
  256
370
   -1
100
AcDbLine
 10
62.24794769287109
 20
-3.33793830871582
 11
63.45268249511719
 21
-2.281417846679688
  0
LINE
  5
6D
100
AcDbEntity
  8
0
  6
ByLayer
 62
  256
370
   -1
100
AcDbLine
 10
63.45268249511719
 20
-2.281417846679688
 11
64.78501129150391
 21
-1.391185760498047
  0
LINE
  5
6E
100
AcDbEntity
  8
0
  6
ByLayer
 62
  256
370
   -1
100
AcDbLine
 10
64.78501129150391
 20
-1.391185760498047
 11
66.22213745117188
 21
-0.6824731826782227
  0
LINE
  5
6F
100
AcDbEntity
  8
0
  6
ByLayer
 62
  256
370
   -1
100
AcDbLine
 10
66.22213745117188
 20
-0.6824731826782227
 11
67.73947906494141
 21
-0.1674070358276367
  0
LINE
  5
70
100
AcDbEntity
  8
0
  6
ByLayer
 62
  256
370
   -1
100
AcDbLine
 10
67.73947906494141
 20
-0.1674070358276367
 11
69.31106567382812
 21
0.1452007293701172
  0
LINE
  5
71
100
AcDbEntity
  8
0
  6
ByLayer
 62
  256
370
   -1
100
AcDbLine
 10
69.31106567382812
 20
0.1452007293701172
 11
70.91001129150391
 21
0.25
  0
LINE
  5
72
100
AcDbEntity
  8
0
  6
ByLayer
 62
  256
370
   -1
100
AcDbLine
 10
70.91001129150391
 20
0.25
 11
72.50895690917969
 21
0.1451988220214844
  0
LINE
  5
73
100
AcDbEntity
  8
0
  6
ByLayer
 62
  256
370
   -1
100
AcDbLine
 10
72.50895690917969
 20
0.1451988220214844
 11
74.08054351806641
 21
-0.1674098968505859
  0
LINE
  5
74
100
AcDbEntity
  8
0
  6
ByLayer
 62
  256
370
   -1
100
AcDbLine
 10
74.08054351806641
 20
-0.1674098968505859
 11
75.59787750244141
 21
-0.6824779510498047
  0
LINE
  5
75
100
AcDbEntity
  8
0
  6
ByLayer
 62
  256
370
   -1
100
AcDbLine
 10
75.59787750244141
 20
-0.6824779510498047
 11
77.03501129150391
 21
-1.391191482543945
  0
LINE
  5
76
100
AcDbEntity
  8
0
  6
ByLayer
 62
  256
370
   -1
100
AcDbLine
 10
77.03501129150391
 20
-1.391191482543945
 11
78.36733245849609
 21
-2.281425476074219
  0
LINE
  5
77
100
AcDbEntity
  8
0
  6
ByLayer
 62
  256
370
   -1
100
AcDbLine
 10
78.36733245849609
 20
-2.281425476074219
 11
79.57206726074219
 21
-3.337945938110352
  0
LINE
  5
78
100
AcDbEntity
  8
0
  6
ByLayer
 62
  256
370
   -1
100
AcDbLine
 10
79.57206726074219
 20
-3.337945938110352
 11
80.62858581542969
 21
-4.54267692565918
  0
LINE
  5
79
100
AcDbEntity
  8
0
  6
ByLayer
 62
  256
370
   -1
100
AcDbLine
 10
80.62858581542969
 20
-4.54267692565918
 11
81.51881408691406
 21
-5.875004768371582
  0
LINE
  5
7A
100
AcDbEntity
  8
0
  6
ByLayer
 62
  256
370
   -1
100
AcDbLine
 10
81.51881408691406
 20
-5.875004768371582
 11
82.22753143310547
 21
-7.312133312225342
  0
LINE
  5
7B
100
AcDbEntity
  8
0
  6
ByLayer
 62
  256
370
   -1
100
AcDbLine
 10
82.22753143310547
 20
-7.312133312225342
 11
82.74259948730469
 21
-8.829472541809082
  0
LINE
  5
7C
100
AcDbEntity
  8
0
  6
ByLayer
 62
  256
370
   -1
100
AcDbLine
 10
82.74259948730469
 20
-8.829472541809082
 11
83.05520629882812
 21
-10.40106010437012
  0
LINE
  5
7D
100
AcDbEntity
  8
0
  6
ByLayer
 62
  256
370
   -1
100
AcDbLine
 10
83.16000366210938
 20
-12.0000057220459
 11
83.05520629882812
 21
-10.40106010437012
  0
LINE
  5
7E
100
AcDbEntity
  8
0
  6
ByLayer
 62
  256
370
   -1
100
AcDbLine
 10
109.3409042358398
 20
-2.717220581871516e-07
 11
109.2361068725586
 21
-1.598946213722229
  0
LINE
  5
7F
100
AcDbEntity
  8
0
  6
ByLayer
 62
  256
370
   -1
100
AcDbLine
 10
109.2361068725586
 20
-1.598946213722229
 11
108.9234924316406
 21
-3.170533657073975
  0
LINE
  5
80
100
AcDbEntity
  8
0
  6
ByLayer
 62
  256
370
   -1
100
AcDbLine
 10
108.9234924316406
 20
-3.170533657073975
 11
108.4084320068359
 21
-4.687871932983398
  0
LINE
  5
81
100
AcDbEntity
  8
0
  6
ByLayer
 62
  256
370
   -1
100
AcDbLine
 10
108.4084320068359
 20
-4.687871932983398
 11
107.6997146606445
 21
-6.125
  0
LINE
  5
82
100
AcDbEntity
  8
0
  6
ByLayer
 62
  256
370
   -1
100
AcDbLine
 10
107.6997146606445
 20
-6.125
 11
106.8094787597656
 21
-7.457327365875244
  0
LINE
  5
83
100
AcDbEntity
  8
0
  6
ByLayer
 62
  256
370
   -1
100
AcDbLine
 10
106.8094787597656
 20
-7.457327365875244
 11
105.7529602050781
 21
-8.662057876586914
  0
LINE
  5
84
100
AcDbEntity
  8
0
  6
ByLayer
 62
  256
370
   -1
100
AcDbLine
 10
105.7529602050781
 20
-8.662057876586914
 11
104.5482330322266
 21
-9.718578338623047
  0
LINE
  5
85
100
AcDbEntity
  8
0
  6
ByLayer
 62
  256
370
   -1
100
AcDbLine
 10
104.5482330322266
 20
-9.718578338623047
 11
103.2159042358398
 21
-10.608811378479
  0
LINE
  5
86
100
AcDbEntity
  8
0
  6
ByLayer
 62
  256
370
   -1
100
AcDbLine
 10
103.2159042358398
 20
-10.608811378479
 11
101.7787780761719
 21
-11.31752395629883
  0
LINE
  5
87
100
AcDbEntity
  8
0
  6
ByLayer
 62
  256
370
   -1
100
AcDbLine
 10
101.7787780761719
 20
-11.31752395629883
 11
100.2614364624023
 21
-11.83259105682373
  0
LINE
  5
88
100
AcDbEntity
  8
0
  6
ByLayer
 62
  256
370
   -1
100
AcDbLine
 10
100.2614364624023
 20
-11.83259105682373
 11
98.68984985351562
 21
-12.1451997756958
  0
LINE
  5
89
100
AcDbEntity
  8
0
  6
ByLayer
 62
  256
370
   -1
100
AcDbLine
 10
98.68984985351562
 20
-12.1451997756958
 11
97.09090423583984
 21
-12.25
  0
LINE
  5
8A
100
AcDbEntity
  8
0
  6
ByLayer
 62
  256
370
   -1
100
AcDbLine
 10
97.09090423583984
 20
-12.25
 11
95.49195861816406
 21
-12.1451997756958
  0
LINE
  5
8B
100
AcDbEntity
  8
0
  6
ByLayer
 62
  256
370
   -1
100
AcDbLine
 10
95.49195861816406
 20
-12.1451997756958
 11
93.92037200927734
 21
-11.83259105682373
  0
LINE
  5
8C
100
AcDbEntity
  8
0
  6
ByLayer
 62
  256
370
   -1
100
AcDbLine
 10
93.92037200927734
 20
-11.83259105682373
 11
92.40303039550781
 21
-11.31752395629883
  0
LINE
  5
8D
100
AcDbEntity
  8
0
  6
ByLayer
 62
  256
370
   -1
100
AcDbLine
 10
92.40303039550781
 20
-11.31752395629883
 11
90.96590423583984
 21
-10.608811378479
  0
LINE
  5
8E
100
AcDbEntity
  8
0
  6
ByLayer
 62
  256
370
   -1
100
AcDbLine
 10
90.96590423583984
 20
-10.608811378479
 11
89.63357543945312
 21
-9.718578338623047
  0
LINE
  5
8F
100
AcDbEntity
  8
0
  6
ByLayer
 62
  256
370
   -1
100
AcDbLine
 10
89.63357543945312
 20
-9.718578338623047
 11
88.42884826660156
 21
-8.662057876586914
  0
LINE
  5
90
100
AcDbEntity
  8
0
  6
ByLayer
 62
  256
370
   -1
100
AcDbLine
 10
88.42884826660156
 20
-8.662057876586914
 11
87.37232971191406
 21
-7.457327365875244
  0
LINE
  5
91
100
AcDbEntity
  8
0
  6
ByLayer
 62
  256
370
   -1
100
AcDbLine
 10
87.37232971191406
 20
-7.457327365875244
 11
86.48209381103516
 21
-6.125
  0
LINE
  5
92
100
AcDbEntity
  8
0
  6
ByLayer
 62
  256
370
   -1
100
AcDbLine
 10
86.48209381103516
 20
-6.125
 11
85.77337646484375
 21
-4.687871932983398
  0
LINE
  5
93
100
AcDbEntity
  8
0
  6
ByLayer
 62
  256
370
   -1
100
AcDbLine
 10
85.77337646484375
 20
-4.687871932983398
 11
85.25831604003906
 21
-3.170533418655396
  0
LINE
  5
94
100
AcDbEntity
  8
0
  6
ByLayer
 62
  256
370
   -1
100
AcDbLine
 10
85.25831604003906
 20
-3.170533418655396
 11
84.94570159912109
 21
-1.59894597530365
  0
LINE
  5
95
100
AcDbEntity
  8
0
  6
ByLayer
 62
  256
370
   -1
100
AcDbLine
 10
84.94570159912109
 20
-1.59894597530365
 11
84.84090423583984
 21
-1.256422592632589e-07
  0
LINE
  5
96
100
AcDbEntity
  8
0
  6
ByLayer
 62
  256
370
   -1
100
AcDbLine
 10
84.84090423583984
 20
-1.256422592632589e-07
 11
84.94570159912109
 21
1.598945736885071
  0
LINE
  5
97
100
AcDbEntity
  8
0
  6
ByLayer
 62
  256
370
   -1
100
AcDbLine
 10
84.94570159912109
 20
1.598945736885071
 11
85.25831604003906
 21
3.170533180236816
  0
LINE
  5
98
100
AcDbEntity
  8
0
  6
ByLayer
 62
  256
370
   -1
100
AcDbLine
 10
85.25831604003906
 20
3.170533180236816
 11
85.77337646484375
 21
4.687871932983398
  0
LINE
  5
99
100
AcDbEntity
  8
0
  6
ByLayer
 62
  256
370
   -1
100
AcDbLine
 10
85.77337646484375
 20
4.687871932983398
 11
86.48209381103516
 21
6.125
  0
LINE
  5
9A
100
AcDbEntity
  8
0
  6
ByLayer
 62
  256
370
   -1
100
AcDbLine
 10
86.48209381103516
 20
6.125
 11
87.37232971191406
 21
7.457327365875244
  0
LINE
  5
9B
100
AcDbEntity
  8
0
  6
ByLayer
 62
  256
370
   -1
100
AcDbLine
 10
87.37232971191406
 20
7.457327365875244
 11
88.42884826660156
 21
8.662057876586914
  0
LINE
  5
9C
100
AcDbEntity
  8
0
  6
ByLayer
 62
  256
370
   -1
100
AcDbLine
 10
88.42884826660156
 20
8.662057876586914
 11
89.63357543945312
 21
9.718578338623047
  0
LINE
  5
9D
100
AcDbEntity
  8
0
  6
ByLayer
 62
  256
370
   -1
100
AcDbLine
 10
89.63357543945312
 20
9.718578338623047
 11
90.96590423583984
 21
10.608811378479
  0
LINE
  5
9E
100
AcDbEntity
  8
0
  6
ByLayer
 62
  256
370
   -1
100
AcDbLine
 10
90.96590423583984
 20
10.608811378479
 11
92.40303039550781
 21
11.31752395629883
  0
LINE
  5
9F
100
AcDbEntity
  8
0
  6
ByLayer
 62
  256
370
   -1
100
AcDbLine
 10
92.40303039550781
 20
11.31752395629883
 11
93.92037200927734
 21
11.83259105682373
  0
LINE
  5
A0
100
AcDbEntity
  8
0
  6
ByLayer
 62
  256
370
   -1
100
AcDbLine
 10
93.92037200927734
 20
11.83259105682373
 11
95.49195861816406
 21
12.1451997756958
  0
LINE
  5
A1
100
AcDbEntity
  8
0
  6
ByLayer
 62
  256
370
   -1
100
AcDbLine
 10
95.49195861816406
 20
12.1451997756958
 11
97.09090423583984
 21
12.25
  0
LINE
  5
A2
100
AcDbEntity
  8
0
  6
ByLayer
 62
  256
370
   -1
100
AcDbLine
 10
97.09090423583984
 20
12.25
 11
98.68984985351562
 21
12.1451997756958
  0
LINE
  5
A3
100
AcDbEntity
  8
0
  6
ByLayer
 62
  256
370
   -1
100
AcDbLine
 10
98.68984985351562
 20
12.1451997756958
 11
100.2614364624023
 21
11.83259105682373
  0
LINE
  5
A4
100
AcDbEntity
  8
0
  6
ByLayer
 62
  256
370
   -1
100
AcDbLine
 10
100.2614364624023
 20
11.83259105682373
 11
101.7787780761719
 21
11.31752395629883
  0
LINE
  5
A5
100
AcDbEntity
  8
0
  6
ByLayer
 62
  256
370
   -1
100
AcDbLine
 10
101.7787780761719
 20
11.31752395629883
 11
103.2159042358398
 21
10.608811378479
  0
LINE
  5
A6
100
AcDbEntity
  8
0
  6
ByLayer
 62
  256
370
   -1
100
AcDbLine
 10
103.2159042358398
 20
10.608811378479
 11
104.5482330322266
 21
9.718578338623047
  0
LINE
  5
A7
100
AcDbEntity
  8
0
  6
ByLayer
 62
  256
370
   -1
100
AcDbLine
 10
104.5482330322266
 20
9.718578338623047
 11
105.7529602050781
 21
8.662057876586914
  0
LINE
  5
A8
100
AcDbEntity
  8
0
  6
ByLayer
 62
  256
370
   -1
100
AcDbLine
 10
105.7529602050781
 20
8.662057876586914
 11
106.8094787597656
 21
7.457327365875244
  0
LINE
  5
A9
100
AcDbEntity
  8
0
  6
ByLayer
 62
  256
370
   -1
100
AcDbLine
 10
106.8094787597656
 20
7.457327365875244
 11
107.6997146606445
 21
6.125
  0
LINE
  5
AA
100
AcDbEntity
  8
0
  6
ByLayer
 62
  256
370
   -1
100
AcDbLine
 10
107.6997146606445
 20
6.125
 11
108.4084320068359
 21
4.687871932983398
  0
LINE
  5
AB
100
AcDbEntity
  8
0
  6
ByLayer
 62
  256
370
   -1
100
AcDbLine
 10
108.4084320068359
 20
4.687871932983398
 11
108.9234924316406
 21
3.170532941818237
  0
LINE
  5
AC
100
AcDbEntity
  8
0
  6
ByLayer
 62
  256
370
   -1
100
AcDbLine
 10
108.9234924316406
 20
3.170532941818237
 11
109.2361068725586
 21
1.598945498466492
  0
LINE
  5
AD
100
AcDbEntity
  8
0
  6
ByLayer
 62
  256
370
   -1
100
AcDbLine
 10
109.3409042358398
 20
-2.717220581871516e-07
 11
109.2361068725586
 21
1.598945498466492
  0
LINE
  5
AE
100
AcDbEntity
  8
0
  6
ByLayer
 62
  256
370
   -1
100
AcDbLine
 10
138.1409301757812
 20
6.905008831381565e-08
 11
138.0361175537109
 21
-1.59894585609436
  0
LINE
  5
AF
100
AcDbEntity
  8
0
  6
ByLayer
 62
  256
370
   -1
100
AcDbLine
 10
138.0361175537109
 20
-1.59894585609436
 11
137.7235107421875
 21
-3.170533180236816
  0
LINE
  5
B0
100
AcDbEntity
  8
0
  6
ByLayer
 62
  256
370
   -1
100
AcDbLine
 10
137.7235107421875
 20
-3.170533180236816
 11
137.2084503173828
 21
-4.687871932983398
  0
LINE
  5
B1
100
AcDbEntity
  8
0
  6
ByLayer
 62
  256
370
   -1
100
AcDbLine
 10
137.2084503173828
 20
-4.687871932983398
 11
136.4997406005859
 21
-6.125
  0
LINE
  5
B2
100
AcDbEntity
  8
0
  6
ByLayer
 62
  256
370
   -1
100
AcDbLine
 10
136.4997406005859
 20
-6.125
 11
135.6094970703125
 21
-7.457327365875244
  0
LINE
  5
B3
100
AcDbEntity
  8
0
  6
ByLayer
 62
  256
370
   -1
100
AcDbLine
 10
135.6094970703125
 20
-7.457327365875244
 11
134.552978515625
 21
-8.662057876586914
  0
LINE
  5
B4
100
AcDbEntity
  8
0
  6
ByLayer
 62
  256
370
   -1
100
AcDbLine
 10
134.552978515625
 20
-8.662057876586914
 11
133.3482513427734
 21
-9.718578338623047
  0
LINE
  5
B5
100
AcDbEntity
  8
0
  6
ByLayer
 62
  256
370
   -1
100
AcDbLine
 10
133.3482513427734
 20
-9.718578338623047
 11
132.0159301757812
 21
-10.608811378479
  0
LINE
  5
B6
100
AcDbEntity
  8
0
  6
ByLayer
 62
  256
370
   -1
100
AcDbLine
 10
132.0159301757812
 20
-10.608811378479
 11
130.5787963867188
 21
-11.31752395629883
  0
LINE
  5
B7
100
AcDbEntity
  8
0
  6
ByLayer
 62
  256
370
   -1
100
AcDbLine
 10
130.5787963867188
 20
-11.31752395629883
 11
129.0614624023438
 21
-11.83259105682373
  0
LINE
  5
B8
100
AcDbEntity
  8
0
  6
ByLayer
 62
  256
370
   -1
100
AcDbLine
 10
129.0614624023438
 20
-11.83259105682373
 11
127.4898681640625
 21
-12.1451997756958
  0
LINE
  5
B9
100
AcDbEntity
  8
0
  6
ByLayer
 62
  256
370
   -1
100
AcDbLine
 10
127.4898681640625
 20
-12.1451997756958
 11
125.8909225463867
 21
-12.25
  0
LINE
  5
BA
100
AcDbEntity
  8
0
  6
ByLayer
 62
  256
370
   -1
100
AcDbLine
 10
125.8909225463867
 20
-12.25
 11
124.2919769287109
 21
-12.1451997756958
  0
LINE
  5
BB
100
AcDbEntity
  8
0
  6
ByLayer
 62
  256
370
   -1
100
AcDbLine
 10
124.2919769287109
 20
-12.1451997756958
 11
122.7203903198242
 21
-11.83259105682373
  0
LINE
  5
BC
100
AcDbEntity
  8
0
  6
ByLayer
 62
  256
370
   -1
100
AcDbLine
 10
122.7203903198242
 20
-11.83259105682373
 11
121.2030487060547
 21
-11.31752395629883
  0
LINE
  5
BD
100
AcDbEntity
  8
0
  6
ByLayer
 62
  256
370
   -1
100
AcDbLine
 10
121.2030487060547
 20
-11.31752395629883
 11
119.7659225463867
 21
-10.608811378479
  0
LINE
  5
BE
100
AcDbEntity
  8
0
  6
ByLayer
 62
  256
370
   -1
100
AcDbLine
 10
119.7659225463867
 20
-10.608811378479
 11
118.43359375
 21
-9.718578338623047
  0
LINE
  5
BF
100
AcDbEntity
  8
0
  6
ByLayer
 62
  256
370
   -1
100
AcDbLine
 10
118.43359375
 20
-9.718578338623047
 11
117.2288665771484
 21
-8.662057876586914
  0
LINE
  5
C0
100
AcDbEntity
  8
0
  6
ByLayer
 62
  256
370
   -1
100
AcDbLine
 10
117.2288665771484
 20
-8.662057876586914
 11
116.1723480224609
 21
-7.457327842712402
  0
LINE
  5
C1
100
AcDbEntity
  8
0
  6
ByLayer
 62
  256
370
   -1
100
AcDbLine
 10
116.1723480224609
 20
-7.457327842712402
 11
115.282112121582
 21
-6.125
  0
LINE
  5
C2
100
AcDbEntity
  8
0
  6
ByLayer
 62
  256
370
   -1
100
AcDbLine
 10
115.282112121582
 20
-6.125
 11
114.5733947753906
 21
-4.687872409820557
  0
LINE
  5
C3
100
AcDbEntity
  8
0
  6
ByLayer
 62
  256
370
   -1
100
AcDbLine
 10
114.5733947753906
 20
-4.687872409820557
 11
114.0583343505859
 21
-3.170533895492554
  0
LINE
  5
C4
100
AcDbEntity
  8
0
  6
ByLayer
 62
  256
370
   -1
100
AcDbLine
 10
114.0583343505859
 20
-3.170533895492554
 11
113.745719909668
 21
-1.598946332931519
  0
LINE
  5
C5
100
AcDbEntity
  8
0
  6
ByLayer
 62
  256
370
   -1
100
AcDbLine
 10
113.745719909668
 20
-1.598946332931519
 11
113.6409225463867
 21
-4.664144341859355e-07
  0
LINE
  5
C6
100
AcDbEntity
  8
0
  6
ByLayer
 62
  256
370
   -1
100
AcDbLine
 10
113.6409225463867
 20
-4.664144341859355e-07
 11
113.745719909668
 21
1.598945379257202
  0
LINE
  5
C7
100
AcDbEntity
  8
0
  6
ByLayer
 62
  256
370
   -1
100
AcDbLine
 10
113.745719909668
 20
1.598945379257202
 11
114.0583343505859
 21
3.170532703399658
  0
LINE
  5
C8
100
AcDbEntity
  8
0
  6
ByLayer
 62
  256
370
   -1
100
AcDbLine
 10
114.0583343505859
 20
3.170532703399658
 11
114.5733947753906
 21
4.687871932983398
  0
LINE
  5
C9
100
AcDbEntity
  8
0
  6
ByLayer
 62
  256
370
   -1
100
AcDbLine
 10
114.5733947753906
 20
4.687871932983398
 11
115.282112121582
 21
6.125
  0
LINE
  5
CA
100
AcDbEntity
  8
0
  6
ByLayer
 62
  256
370
   -1
100
AcDbLine
 10
115.282112121582
 20
6.125
 11
116.1723480224609
 21
7.457327365875244
  0
LINE
  5
CB
100
AcDbEntity
  8
0
  6
ByLayer
 62
  256
370
   -1
100
AcDbLine
 10
116.1723480224609
 20
7.457327365875244
 11
117.2288665771484
 21
8.662057876586914
  0
LINE
  5
CC
100
AcDbEntity
  8
0
  6
ByLayer
 62
  256
370
   -1
100
AcDbLine
 10
117.2288665771484
 20
8.662057876586914
 11
118.43359375
 21
9.718578338623047
  0
LINE
  5
CD
100
AcDbEntity
  8
0
  6
ByLayer
 62
  256
370
   -1
100
AcDbLine
 10
118.43359375
 20
9.718578338623047
 11
119.7659225463867
 21
10.608811378479
  0
LINE
  5
CE
100
AcDbEntity
  8
0
  6
ByLayer
 62
  256
370
   -1
100
AcDbLine
 10
119.7659225463867
 20
10.608811378479
 11
121.2030487060547
 21
11.31752395629883
  0
LINE
  5
CF
100
AcDbEntity
  8
0
  6
ByLayer
 62
  256
370
   -1
100
AcDbLine
 10
121.2030487060547
 20
11.31752395629883
 11
122.7203903198242
 21
11.83259105682373
  0
LINE
  5
D0
100
AcDbEntity
  8
0
  6
ByLayer
 62
  256
370
   -1
100
AcDbLine
 10
122.7203903198242
 20
11.83259105682373
 11
124.2919769287109
 21
12.1451997756958
  0
LINE
  5
D1
100
AcDbEntity
  8
0
  6
ByLayer
 62
  256
370
   -1
100
AcDbLine
 10
124.2919769287109
 20
12.1451997756958
 11
125.8909225463867
 21
12.25
  0
LINE
  5
D2
100
AcDbEntity
  8
0
  6
ByLayer
 62
  256
370
   -1
100
AcDbLine
 10
125.8909225463867
 20
12.25
 11
127.4898681640625
 21
12.1451997756958
  0
LINE
  5
D3
100
AcDbEntity
  8
0
  6
ByLayer
 62
  256
370
   -1
100
AcDbLine
 10
127.4898681640625
 20
12.1451997756958
 11
129.0614624023438
 21
11.83259105682373
  0
LINE
  5
D4
100
AcDbEntity
  8
0
  6
ByLayer
 62
  256
370
   -1
100
AcDbLine
 10
129.0614624023438
 20
11.83259105682373
 11
130.5787963867188
 21
11.31752395629883
  0
LINE
  5
D5
100
AcDbEntity
  8
0
  6
ByLayer
 62
  256
370
   -1
100
AcDbLine
 10
130.5787963867188
 20
11.31752395629883
 11
132.0159301757812
 21
10.608811378479
  0
LINE
  5
D6
100
AcDbEntity
  8
0
  6
ByLayer
 62
  256
370
   -1
100
AcDbLine
 10
132.0159301757812
 20
10.608811378479
 11
133.3482513427734
 21
9.718578338623047
  0
LINE
  5
D7
100
AcDbEntity
  8
0
  6
ByLayer
 62
  256
370
   -1
100
AcDbLine
 10
133.3482513427734
 20
9.718578338623047
 11
134.552978515625
 21
8.662057876586914
  0
LINE
  5
D8
100
AcDbEntity
  8
0
  6
ByLayer
 62
  256
370
   -1
100
AcDbLine
 10
134.552978515625
 20
8.662057876586914
 11
135.6094970703125
 21
7.457327842712402
  0
LINE
  5
D9
100
AcDbEntity
  8
0
  6
ByLayer
 62
  256
370
   -1
100
AcDbLine
 10
135.6094970703125
 20
7.457327842712402
 11
136.4997406005859
 21
6.125
  0
LINE
  5
DA
100
AcDbEntity
  8
0
  6
ByLayer
 62
  256
370
   -1
100
AcDbLine
 10
136.4997406005859
 20
6.125
 11
137.2084503173828
 21
4.687872409820557
  0
LINE
  5
DB
100
AcDbEntity
  8
0
  6
ByLayer
 62
  256
370
   -1
100
AcDbLine
 10
137.2084503173828
 20
4.687872409820557
 11
137.7235107421875
 21
3.170533418655396
  0
LINE
  5
DC
100
AcDbEntity
  8
0
  6
ByLayer
 62
  256
370
   -1
100
AcDbLine
 10
137.7235107421875
 20
3.170533418655396
 11
138.0361175537109
 21
1.59894585609436
  0
LINE
  5
DD
100
AcDbEntity
  8
0
  6
ByLayer
 62
  256
370
   -1
100
AcDbLine
 10
138.1409301757812
 20
6.905008831381565e-08
 11
138.0361175537109
 21
1.59894585609436
  0
LINE
  5
DE
100
AcDbEntity
  8
0
  6
ByLayer
 62
  256
370
   -1
100
AcDbLine
 10
166.3089904785156
 20
-6.000007152557373
 11
166.2041931152344
 21
-7.598952770233154
  0
LINE
  5
DF
100
AcDbEntity
  8
0
  6
ByLayer
 62
  256
370
   -1
100
AcDbLine
 10
166.2041931152344
 20
-7.598952770233154
 11
165.8915863037109
 21
-9.170539855957031
  0
LINE
  5
E0
100
AcDbEntity
  8
0
  6
ByLayer
 62
  256
370
   -1
100
AcDbLine
 10
165.8915863037109
 20
-9.170539855957031
 11
165.3765106201172
 21
-10.68787860870361
  0
LINE
  5
E1
100
AcDbEntity
  8
0
  6
ByLayer
 62
  256
370
   -1
100
AcDbLine
 10
165.3765106201172
 20
-10.68787860870361
 11
164.6678009033203
 21
-12.1250057220459
  0
LINE
  5
E2
100
AcDbEntity
  8
0
  6
ByLayer
 62
  256
370
   -1
100
AcDbLine
 10
164.6678009033203
 20
-12.1250057220459
 11
163.7775573730469
 21
-13.45733261108398
  0
LINE
  5
E3
100
AcDbEntity
  8
0
  6
ByLayer
 62
  256
370
   -1
100
AcDbLine
 10
163.7775573730469
 20
-13.45733261108398
 11
162.7210388183594
 21
-14.6620626449585
  0
LINE
  5
E4
100
AcDbEntity
  8
0
  6
ByLayer
 62
  256
370
   -1
100
AcDbLine
 10
162.7210388183594
 20
-14.6620626449585
 11
161.5163116455078
 21
-15.71858310699463
  0
LINE
  5
E5
100
AcDbEntity
  8
0
  6
ByLayer
 62
  256
370
   -1
100
AcDbLine
 10
161.5163116455078
 20
-15.71858310699463
 11
160.1839904785156
 21
-16.60881423950195
  0
LINE
  5
E6
100
AcDbEntity
  8
0
  6
ByLayer
 62
  256
370
   -1
100
AcDbLine
 10
160.1839904785156
 20
-16.60881423950195
 11
158.7468566894531
 21
-17.31752777099609
  0
LINE
  5
E7
100
AcDbEntity
  8
0
  6
ByLayer
 62
  256
370
   -1
100
AcDbLine
 10
158.7468566894531
 20
-17.31752777099609
 11
157.2295227050781
 21
-17.83259201049805
  0
LINE
  5
E8
100
AcDbEntity
  8
0
  6
ByLayer
 62
  256
370
   -1
100
AcDbLine
 10
157.2295227050781
 20
-17.83259201049805
 11
155.6579284667969
 21
-18.14520072937012
  0
LINE
  5
E9
100
AcDbEntity
  8
0
  6
ByLayer
 62
  256
370
   -1
100
AcDbLine
 10
155.6579284667969
 20
-18.14520072937012
 11
154.0589904785156
 21
-18.25
  0
LINE
  5
EA
100
AcDbEntity
  8
0
  6
ByLayer
 62
  256
370
   -1
100
AcDbLine
 10
154.0589904785156
 20
-18.25
 11
152.4600372314453
 21
-18.14519882202148
  0
LINE
  5
EB
100
AcDbEntity
  8
0
  6
ByLayer
 62
  256
370
   -1
100
AcDbLine
 10
152.4600372314453
 20
-18.14519882202148
 11
150.8884429931641
 21
-17.83258819580078
  0
LINE
  5
EC
100
AcDbEntity
  8
0
  6
ByLayer
 62
  256
370
   -1
100
AcDbLine
 10
150.8884429931641
 20
-17.83258819580078
 11
149.3711090087891
 21
-17.3175220489502
  0
LINE
  5
ED
100
AcDbEntity
  8
0
  6
ByLayer
 62
  256
370
   -1
100
AcDbLine
 10
149.3711090087891
 20
-17.3175220489502
 11
147.9339904785156
 21
-16.60880661010742
  0
LINE
  5
EE
100
AcDbEntity
  8
0
  6
ByLayer
 62
  256
370
   -1
100
AcDbLine
 10
147.9339904785156
 20
-16.60880661010742
 11
146.6016540527344
 21
-15.71857452392578
  0
LINE
  5
EF
100
AcDbEntity
  8
0
  6
ByLayer
 62
  256
370
   -1
100
AcDbLine
 10
146.6016540527344
 20
-15.71857452392578
 11
145.3969268798828
 21
-14.66205310821533
  0
LINE
  5
F0
100
AcDbEntity
  8
0
  6
ByLayer
 62
  256
370
   -1
100
AcDbLine
 10
145.3969268798828
 20
-14.66205310821533
 11
144.3404083251953
 21
-13.4573221206665
  0
LINE
  5
F1
100
AcDbEntity
  8
0
  6
ByLayer
 62
  256
370
   -1
100
AcDbLine
 10
144.3404083251953
 20
-13.4573221206665
 11
143.4501800537109
 21
-12.1249942779541
  0
LINE
  5
F2
100
AcDbEntity
  8
0
  6
ByLayer
 62
  256
370
   -1
100
AcDbLine
 10
143.4501800537109
 20
-12.1249942779541
 11
142.7414703369141
 21
-10.6878662109375
  0
LINE
  5
F3
100
AcDbEntity
  8
0
  6
ByLayer
 62
  256
370
   -1
100
AcDbLine
 10
142.7414703369141
 20
-10.6878662109375
 11
142.2263946533203
 21
-9.170526504516602
  0
LINE
  5
F4
100
AcDbEntity
  8
0
  6
ByLayer
 62
  256
370
   -1
100
AcDbLine
 10
142.2263946533203
 20
-9.170526504516602
 11
141.9137878417969
 21
-7.598938941955566
  0
LINE
  5
F5
100
AcDbEntity
  8
0
  6
ByLayer
 62
  256
370
   -1
100
AcDbLine
 10
141.9137878417969
 20
-7.598938941955566
 11
141.8089904785156
 21
-5.999992847442627
  0
LINE
  5
F6
100
AcDbEntity
  8
0
  6
ByLayer
 62
  256
370
   -1
100
AcDbLine
 10
141.8089904785156
 20
-5.999992847442627
 11
141.9137878417969
 21
-4.401047229766846
  0
LINE
  5
F7
100
AcDbEntity
  8
0
  6
ByLayer
 62
  256
370
   -1
100
AcDbLine
 10
141.9137878417969
 20
-4.401047229766846
 11
142.2263946533203
 21
-2.82945990562439
  0
LINE
  5
F8
100
AcDbEntity
  8
0
  6
ByLayer
 62
  256
370
   -1
100
AcDbLine
 10
142.2263946533203
 20
-2.82945990562439
 11
142.7414703369141
 21
-1.312121391296387
  0
LINE
  5
F9
100
AcDbEntity
  8
0
  6
ByLayer
 62
  256
370
   -1
100
AcDbLine
 10
142.7414703369141
 20
-1.312121391296387
 11
143.4501800537109
 21
0.1250061988830566
  0
LINE
  5
FA
100
AcDbEntity
  8
0
  6
ByLayer
 62
  256
370
   -1
100
AcDbLine
 10
143.4501800537109
 20
0.1250061988830566
 11
144.3404235839844
 21
1.457333087921143
  0
LINE
  5
FB
100
AcDbEntity
  8
0
  6
ByLayer
 62
  256
370
   -1
100
AcDbLine
 10
144.3404235839844
 20
1.457333087921143
 11
145.3969421386719
 21
2.662062644958496
  0
LINE
  5
FC
100
AcDbEntity
  8
0
  6
ByLayer
 62
  256
370
   -1
100
AcDbLine
 10
145.3969421386719
 20
2.662062644958496
 11
146.6016693115234
 21
3.718583106994629
  0
LINE
  5
FD
100
AcDbEntity
  8
0
  6
ByLayer
 62
  256
370
   -1
100
AcDbLine
 10
146.6016693115234
 20
3.718583106994629
 11
147.9339904785156
 21
4.608814239501953
  0
LINE
  5
FE
100
AcDbEntity
  8
0
  6
ByLayer
 62
  256
370
   -1
100
AcDbLine
 10
147.9339904785156
 20
4.608814239501953
 11
149.3711242675781
 21
5.317526817321777
  0
LINE
  5
FF
100
AcDbEntity
  8
0
  6
ByLayer
 62
  256
370
   -1
100
AcDbLine
 10
149.3711242675781
 20
5.317526817321777
 11
150.8884582519531
 21
5.832592964172363
  0
LINE
  5
100
100
AcDbEntity
  8
0
  6
ByLayer
 62
  256
370
   -1
100
AcDbLine
 10
150.8884582519531
 20
5.832592964172363
 11
152.4600524902344
 21
6.145200729370117
  0
LINE
  5
101
100
AcDbEntity
  8
0
  6
ByLayer
 62
  256
370
   -1
100
AcDbLine
 10
152.4600524902344
 20
6.145200729370117
 11
154.0589904785156
 21
6.25
  0
LINE
  5
102
100
AcDbEntity
  8
0
  6
ByLayer
 62
  256
370
   -1
100
AcDbLine
 10
154.0589904785156
 20
6.25
 11
155.6579437255859
 21
6.145198822021484
  0
LINE
  5
103
100
AcDbEntity
  8
0
  6
ByLayer
 62
  256
370
   -1
100
AcDbLine
 10
155.6579437255859
 20
6.145198822021484
 11
157.2295379638672
 21
5.832589149475098
  0
LINE
  5
104
100
AcDbEntity
  8
0
  6
ByLayer
 62
  256
370
   -1
100
AcDbLine
 10
157.2295379638672
 20
5.832589149475098
 11
158.7468719482422
 21
5.317522048950195
  0
LINE
  5
105
100
AcDbEntity
  8
0
  6
ByLayer
 62
  256
370
   -1
100
AcDbLine
 10
158.7468719482422
 20
5.317522048950195
 11
160.1839904785156
 21
4.608807563781738
  0
LINE
  5
106
100
AcDbEntity
  8
0
  6
ByLayer
 62
  256
370
   -1
100
AcDbLine
 10
160.1839904785156
 20
4.608807563781738
 11
161.5163269042969
 21
3.718574523925781
  0
LINE
  5
107
100
AcDbEntity
  8
0
  6
ByLayer
 62
  256
370
   -1
100
AcDbLine
 10
161.5163269042969
 20
3.718574523925781
 11
162.7210540771484
 21
2.662053108215332
  0
LINE
  5
108
100
AcDbEntity
  8
0
  6
ByLayer
 62
  256
370
   -1
100
AcDbLine
 10
162.7210540771484
 20
2.662053108215332
 11
163.7775726318359
 21
1.457322120666504
  0
LINE
  5
109
100
AcDbEntity
  8
0
  6
ByLayer
 62
  256
370
   -1
100
AcDbLine
 10
163.7775726318359
 20
1.457322120666504
 11
164.6678009033203
 21
0.1249938011169434
  0
LINE
  5
10A
100
AcDbEntity
  8
0
  6
ByLayer
 62
  256
370
   -1
100
AcDbLine
 10
164.6678009033203
 20
0.1249938011169434
 11
165.3765106201172
 21
-1.312134265899658
  0
LINE
  5
10B
100
AcDbEntity
  8
0
  6
ByLayer
 62
  256
370
   -1
100
AcDbLine
 10
165.3765106201172
 20
-1.312134265899658
 11
165.8915863037109
 21
-2.829473495483398
  0
LINE
  5
10C
100
AcDbEntity
  8
0
  6
ByLayer
 62
  256
370
   -1
100
AcDbLine
 10
165.8915863037109
 20
-2.829473495483398
 11
166.2041931152344
 21
-4.401061058044434
  0
LINE
  5
10D
100
AcDbEntity
  8
0
  6
ByLayer
 62
  256
370
   -1
100
AcDbLine
 10
166.3089904785156
 20
-6.000007152557373
 11
166.2041931152344
 21
-4.401061058044434
  0
LINE
  5
10E
100
AcDbEntity
  8
0
  6
ByLayer
 62
  256
370
   -1
100
AcDbLine
 10
83.16000366210938
 20
16.79999542236328
 11
83.05520629882812
 21
15.20104885101318
  0
LINE
  5
10F
100
AcDbEntity
  8
0
  6
ByLayer
 62
  256
370
   -1
100
AcDbLine
 10
83.05520629882812
 20
15.20104885101318
 11
82.74259185791016
 21
13.62946128845215
  0
LINE
  5
110
100
AcDbEntity
  8
0
  6
ByLayer
 62
  256
370
   -1
100
AcDbLine
 10
82.74259185791016
 20
13.62946128845215
 11
82.22752380371094
 21
12.11212348937988
  0
LINE
  5
111
100
AcDbEntity
  8
0
  6
ByLayer
 62
  256
370
   -1
100
AcDbLine
 10
82.22752380371094
 20
12.11212348937988
 11
81.51881408691406
 21
10.67499542236328
  0
LINE
  5
112
100
AcDbEntity
  8
0
  6
ByLayer
 62
  256
370
   -1
100
AcDbLine
 10
81.51881408691406
 20
10.67499542236328
 11
80.62857818603516
 21
9.342668533325195
  0
LINE
  5
113
100
AcDbEntity
  8
0
  6
ByLayer
 62
  256
370
   -1
100
AcDbLine
 10
80.62857818603516
 20
9.342668533325195
 11
79.57205963134766
 21
8.137937545776367
  0
LINE
  5
114
100
AcDbEntity
  8
0
  6
ByLayer
 62
  256
370
   -1
100
AcDbLine
 10
79.57205963134766
 20
8.137937545776367
 11
78.36732482910156
 21
7.081418037414551
  0
LINE
  5
115
100
AcDbEntity
  8
0
  6
ByLayer
 62
  256
370
   -1
100
AcDbLine
 10
78.36732482910156
 20
7.081418037414551
 11
77.03500366210938
 21
6.19118595123291
  0
LINE
  5
116
100
AcDbEntity
  8
0
  6
ByLayer
 62
  256
370
   -1
100
AcDbLine
 10
77.03500366210938
 20
6.19118595123291
 11
75.59786987304688
 21
5.482473373413086
  0
LINE
  5
117
100
AcDbEntity
  8
0
  6
ByLayer
 62
  256
370
   -1
100
AcDbLine
 10
75.59786987304688
 20
5.482473373413086
 11
74.08053588867188
 21
4.967406272888184
  0
LINE
  5
118
100
AcDbEntity
  8
0
  6
ByLayer
 62
  256
370
   -1
100
AcDbLine
 10
74.08053588867188
 20
4.967406272888184
 11
72.50894165039062
 21
4.654799461364746
  0
LINE
  5
119
100
AcDbEntity
  8
0
  6
ByLayer
 62
  256
370
   -1
100
AcDbLine
 10
72.50894165039062
 20
4.654799461364746
 11
70.90999603271484
 21
4.549999237060547
  0
LINE
  5
11A
100
AcDbEntity
  8
0
  6
ByLayer
 62
  256
370
   -1
100
AcDbLine
 10
70.90999603271484
 20
4.549999237060547
 11
69.31105041503906
 21
4.654800415039062
  0
LINE
  5
11B
100
AcDbEntity
  8
0
  6
ByLayer
 62
  256
370
   -1
100
AcDbLine
 10
69.31105041503906
 20
4.654800415039062
 11
67.73946380615234
 21
4.967409133911133
  0
LINE
  5
11C
100
AcDbEntity
  8
0
  6
ByLayer
 62
  256
370
   -1
100
AcDbLine
 10
67.73946380615234
 20
4.967409133911133
 11
66.22212982177734
 21
5.482477188110352
  0
LINE
  5
11D
100
AcDbEntity
  8
0
  6
ByLayer
 62
  256
370
   -1
100
AcDbLine
 10
66.22212982177734
 20
5.482477188110352
 11
64.78500366210938
 21
6.191190719604492
  0
LINE
  5
11E
100
AcDbEntity
  8
0
  6
ByLayer
 62
  256
370
   -1
100
AcDbLine
 10
64.78500366210938
 20
6.191190719604492
 11
63.45267105102539
 21
7.081423759460449
  0
LINE
  5
11F
100
AcDbEntity
  8
0
  6
ByLayer
 62
  256
370
   -1
100
AcDbLine
 10
63.45267105102539
 20
7.081423759460449
 11
62.24794006347656
 21
8.137944221496582
  0
LINE
  5
120
100
AcDbEntity
  8
0
  6
ByLayer
 62
  256
370
   -1
100
AcDbLine
 10
62.24794006347656
 20
8.137944221496582
 11
61.19142150878906
 21
9.34267520904541
  0
LINE
  5
121
100
AcDbEntity
  8
0
  6
ByLayer
 62
  256
370
   -1
100
AcDbLine
 10
61.19142150878906
 20
9.34267520904541
 11
60.30118942260742
 21
10.67500305175781
  0
LINE
  5
122
100
AcDbEntity
  8
0
  6
ByLayer
 62
  256
370
   -1
100
AcDbLine
 10
60.30118942260742
 20
10.67500305175781
 11
59.59247589111328
 21
12.11213111877441
  0
LINE
  5
123
100
AcDbEntity
  8
0
  6
ByLayer
 62
  256
370
   -1
100
AcDbLine
 10
59.59247589111328
 20
12.11213111877441
 11
59.07741165161133
 21
13.62947082519531
  0
LINE
  5
124
100
AcDbEntity
  8
0
  6
ByLayer
 62
  256
370
   -1
100
AcDbLine
 10
59.07741165161133
 20
13.62947082519531
 11
58.76480484008789
 21
15.20105838775635
  0
LINE
  5
125
100
AcDbEntity
  8
0
  6
ByLayer
 62
  256
370
   -1
100
AcDbLine
 10
58.76480484008789
 20
15.20105838775635
 11
58.66000366210938
 21
16.80000305175781
  0
LINE
  5
126
100
AcDbEntity
  8
0
  6
ByLayer
 62
  256
370
   -1
100
AcDbLine
 10
58.66000366210938
 20
16.80000305175781
 11
58.76480484008789
 21
18.39895057678223
  0
LINE
  5
127
100
AcDbEntity
  8
0
  6
ByLayer
 62
  256
370
   -1
100
AcDbLine
 10
58.76480484008789
 20
18.39895057678223
 11
59.07741546630859
 21
19.97053718566895
  0
LINE
  5
128
100
AcDbEntity
  8
0
  6
ByLayer
 62
  256
370
   -1
100
AcDbLine
 10
59.07741546630859
 20
19.97053718566895
 11
59.59248352050781
 21
21.48787498474121
  0
LINE
  5
129
100
AcDbEntity
  8
0
  6
ByLayer
 62
  256
370
   -1
100
AcDbLine
 10
59.59248352050781
 20
21.48787498474121
 11
60.30119323730469
 21
22.92500305175781
  0
LINE
  5
12A
100
AcDbEntity
  8
0
  6
ByLayer
 62
  256
370
   -1
100
AcDbLine
 10
60.30119323730469
 20
22.92500305175781
 11
61.19142913818359
 21
24.2573299407959
  0
LINE
  5
12B
100
AcDbEntity
  8
0
  6
ByLayer
 62
  256
370
   -1
100
AcDbLine
 10
61.19142913818359
 20
24.2573299407959
 11
62.24794769287109
 21
25.46206092834473
  0
LINE
  5
12C
100
AcDbEntity
  8
0
  6
ByLayer
 62
  256
370
   -1
100
AcDbLine
 10
62.24794769287109
 20
25.46206092834473
 11
63.45267868041992
 21
26.51858139038086
  0
LINE
  5
12D
100
AcDbEntity
  8
0
  6
ByLayer
 62
  256
370
   -1
100
AcDbLine
 10
63.45267868041992
 20
26.51858139038086
 11
64.78500366210938
 21
27.4088134765625
  0
LINE
  5
12E
100
AcDbEntity
  8
0
  6
ByLayer
 62
  256
370
   -1
100
AcDbLine
 10
64.78500366210938
 20
27.4088134765625
 11
66.22213745117188
 21
28.11752510070801
  0
LINE
  5
12F
100
AcDbEntity
  8
0
  6
ByLayer
 62
  256
370
   -1
100
AcDbLine
 10
66.22213745117188
 20
28.11752510070801
 11
67.73947143554688
 21
28.63259124755859
  0
LINE
  5
130
100
AcDbEntity
  8
0
  6
ByLayer
 62
  256
370
   -1
100
AcDbLine
 10
67.73947143554688
 20
28.63259124755859
 11
69.31106567382812
 21
28.94519805908203
  0
LINE
  5
131
100
AcDbEntity
  8
0
  6
ByLayer
 62
  256
370
   -1
100
AcDbLine
 10
69.31106567382812
 20
28.94519805908203
 11
70.91001129150391
 21
29.04999923706055
  0
LINE
  5
132
100
AcDbEntity
  8
0
  6
ByLayer
 62
  256
370
   -1
100
AcDbLine
 10
70.91001129150391
 20
29.04999923706055
 11
72.50895690917969
 21
28.94519805908203
  0
LINE
  5
133
100
AcDbEntity
  8
0
  6
ByLayer
 62
  256
370
   -1
100
AcDbLine
 10
72.50895690917969
 20
28.94519805908203
 11
74.08054351806641
 21
28.63258934020996
  0
LINE
  5
134
100
AcDbEntity
  8
0
  6
ByLayer
 62
  256
370
   -1
100
AcDbLine
 10
74.08054351806641
 20
28.63258934020996
 11
75.59787750244141
 21
28.11752128601074
  0
LINE
  5
135
100
AcDbEntity
  8
0
  6
ByLayer
 62
  256
370
   -1
100
AcDbLine
 10
75.59787750244141
 20
28.11752128601074
 11
77.03500366210938
 21
27.4088077545166
  0
LINE
  5
136
100
AcDbEntity
  8
0
  6
ByLayer
 62
  256
370
   -1
100
AcDbLine
 10
77.03500366210938
 20
27.4088077545166
 11
78.36733245849609
 21
26.51857376098633
  0
LINE
  5
137
100
AcDbEntity
  8
0
  6
ByLayer
 62
  256
370
   -1
100
AcDbLine
 10
78.36733245849609
 20
26.51857376098633
 11
79.57206726074219
 21
25.46205520629883
  0
LINE
  5
138
100
AcDbEntity
  8
0
  6
ByLayer
 62
  256
370
   -1
100
AcDbLine
 10
79.57206726074219
 20
25.46205520629883
 11
80.62858581542969
 21
24.25732421875
  0
LINE
  5
139
100
AcDbEntity
  8
0
  6
ByLayer
 62
  256
370
   -1
100
AcDbLine
 10
80.62858581542969
 20
24.25732421875
 11
81.51881408691406
 21
22.92499542236328
  0
LINE
  5
13A
100
AcDbEntity
  8
0
  6
ByLayer
 62
  256
370
   -1
100
AcDbLine
 10
81.51881408691406
 20
22.92499542236328
 11
82.22753143310547
 21
21.48786735534668
  0
LINE
  5
13B
100
AcDbEntity
  8
0
  6
ByLayer
 62
  256
370
   -1
100
AcDbLine
 10
82.22753143310547
 20
21.48786735534668
 11
82.74259948730469
 21
19.97052764892578
  0
LINE
  5
13C
100
AcDbEntity
  8
0
  6
ByLayer
 62
  256
370
   -1
100
AcDbLine
 10
82.74259948730469
 20
19.97052764892578
 11
83.05520629882812
 21
18.39894104003906
  0
LINE
  5
13D
100
AcDbEntity
  8
0
  6
ByLayer
 62
  256
370
   -1
100
AcDbLine
 10
83.16000366210938
 20
16.79999542236328
 11
83.05520629882812
 21
18.39894104003906
  0
LINE
  5
13E
100
AcDbEntity
  8
0
  6
ByLayer
 62
  256
370
   -1
100
AcDbLine
 10
109.3409042358398
 20
28.79999923706055
 11
109.2360992431641
 21
27.20105171203613
  0
LINE
  5
13F
100
AcDbEntity
  8
0
  6
ByLayer
 62
  256
370
   -1
100
AcDbLine
 10
109.2360992431641
 20
27.20105171203613
 11
108.9234924316406
 21
25.62946510314941
  0
LINE
  5
140
100
AcDbEntity
  8
0
  6
ByLayer
 62
  256
370
   -1
100
AcDbLine
 10
108.9234924316406
 20
25.62946510314941
 11
108.4084243774414
 21
24.11212539672852
  0
LINE
  5
141
100
AcDbEntity
  8
0
  6
ByLayer
 62
  256
370
   -1
100
AcDbLine
 10
108.4084243774414
 20
24.11212539672852
 11
107.6997146606445
 21
22.67499923706055
  0
LINE
  5
142
100
AcDbEntity
  8
0
  6
ByLayer
 62
  256
370
   -1
100
AcDbLine
 10
107.6997146606445
 20
22.67499923706055
 11
106.8094787597656
 21
21.34267044067383
  0
LINE
  5
143
100
AcDbEntity
  8
0
  6
ByLayer
 62
  256
370
   -1
100
AcDbLine
 10
106.8094787597656
 20
21.34267044067383
 11
105.7529602050781
 21
20.13794136047363
  0
LINE
  5
144
100
AcDbEntity
  8
0
  6
ByLayer
 62
  256
370
   -1
100
AcDbLine
 10
105.7529602050781
 20
20.13794136047363
 11
104.5482330322266
 21
19.0814208984375
  0
LINE
  5
145
100
AcDbEntity
  8
0
  6
ByLayer
 62
  256
370
   -1
100
AcDbLine
 10
104.5482330322266
 20
19.0814208984375
 11
103.2159042358398
 21
18.19118881225586
  0
LINE
  5
146
100
AcDbEntity
  8
0
  6
ByLayer
 62
  256
370
   -1
100
AcDbLine
 10
103.2159042358398
 20
18.19118881225586
 11
101.7787704467773
 21
17.48247528076172
  0
LINE
  5
147
100
AcDbEntity
  8
0
  6
ByLayer
 62
  256
370
   -1
100
AcDbLine
 10
101.7787704467773
 20
17.48247528076172
 11
100.2614364624023
 21
16.96740913391113
  0
LINE
  5
148
100
AcDbEntity
  8
0
  6
ByLayer
 62
  256
370
   -1
100
AcDbLine
 10
100.2614364624023
 20
16.96740913391113
 11
98.68984985351562
 21
16.65480041503906
  0
LINE
  5
149
100
AcDbEntity
  8
0
  6
ByLayer
 62
  256
370
   -1
100
AcDbLine
 10
98.68984985351562
 20
16.65480041503906
 11
97.09090423583984
 21
16.55000114440918
  0
LINE
  5
14A
100
AcDbEntity
  8
0
  6
ByLayer
 62
  256
370
   -1
100
AcDbLine
 10
97.09090423583984
 20
16.55000114440918
 11
95.49195861816406
 21
16.6548023223877
  0
LINE
  5
14B
100
AcDbEntity
  8
0
  6
ByLayer
 62
  256
370
   -1
100
AcDbLine
 10
95.49195861816406
 20
16.6548023223877
 11
93.92036437988281
 21
16.96741104125977
  0
LINE
  5
14C
100
AcDbEntity
  8
0
  6
ByLayer
 62
  256
370
   -1
100
AcDbLine
 10
93.92036437988281
 20
16.96741104125977
 11
92.40303039550781
 21
17.48247909545898
  0
LINE
  5
14D
100
AcDbEntity
  8
0
  6
ByLayer
 62
  256
370
   -1
100
AcDbLine
 10
92.40303039550781
 20
17.48247909545898
 11
90.96590423583984
 21
18.19119262695312
  0
LINE
  5
14E
100
AcDbEntity
  8
0
  6
ByLayer
 62
  256
370
   -1
100
AcDbLine
 10
90.96590423583984
 20
18.19119262695312
 11
89.63357543945312
 21
19.08142471313477
  0
LINE
  5
14F
100
AcDbEntity
  8
0
  6
ByLayer
 62
  256
370
   -1
100
AcDbLine
 10
89.63357543945312
 20
19.08142471313477
 11
88.42884826660156
 21
20.1379451751709
  0
LINE
  5
150
100
AcDbEntity
  8
0
  6
ByLayer
 62
  256
370
   -1
100
AcDbLine
 10
88.42884826660156
 20
20.1379451751709
 11
87.37232208251953
 21
21.34267616271973
  0
LINE
  5
151
100
AcDbEntity
  8
0
  6
ByLayer
 62
  256
370
   -1
100
AcDbLine
 10
87.37232208251953
 20
21.34267616271973
 11
86.48209381103516
 21
22.67500305175781
  0
LINE
  5
152
100
AcDbEntity
  8
0
  6
ByLayer
 62
  256
370
   -1
100
AcDbLine
 10
86.48209381103516
 20
22.67500305175781
 11
85.77337646484375
 21
24.11213111877441
  0
LINE
  5
153
100
AcDbEntity
  8
0
  6
ByLayer
 62
  256
370
   -1
100
AcDbLine
 10
85.77337646484375
 20
24.11213111877441
 11
85.25831604003906
 21
25.62947082519531
  0
LINE
  5
154
100
AcDbEntity
  8
0
  6
ByLayer
 62
  256
370
   -1
100
AcDbLine
 10
85.25831604003906
 20
25.62947082519531
 11
84.94570159912109
 21
27.20105743408203
  0
LINE
  5
155
100
AcDbEntity
  8
0
  6
ByLayer
 62
  256
370
   -1
100
AcDbLine
 10
84.94570159912109
 20
27.20105743408203
 11
84.84090423583984
 21
28.80000305175781
  0
LINE
  5
156
100
AcDbEntity
  8
0
  6
ByLayer
 62
  256
370
   -1
100
AcDbLine
 10
84.84090423583984
 20
28.80000305175781
 11
84.94570922851562
 21
30.39895057678223
  0
LINE
  5
157
100
AcDbEntity
  8
0
  6
ByLayer
 62
  256
370
   -1
100
AcDbLine
 10
84.94570922851562
 20
30.39895057678223
 11
85.25831604003906
 21
31.97053718566895
  0
LINE
  5
158
100
AcDbEntity
  8
0
  6
ByLayer
 62
  256
370
   -1
100
AcDbLine
 10
85.25831604003906
 20
31.97053718566895
 11
85.77338409423828
 21
33.48787689208984
  0
LINE
  5
159
100
AcDbEntity
  8
0
  6
ByLayer
 62
  256
370
   -1
100
AcDbLine
 10
85.77338409423828
 20
33.48787689208984
 11
86.48209381103516
 21
34.92500305175781
  0
LINE
  5
15A
100
AcDbEntity
  8
0
  6
ByLayer
 62
  256
370
   -1
100
AcDbLine
 10
86.48209381103516
 20
34.92500305175781
 11
87.37232971191406
 21
36.25733184814453
  0
LINE
  5
15B
100
AcDbEntity
  8
0
  6
ByLayer
 62
  256
370
   -1
100
AcDbLine
 10
87.37232971191406
 20
36.25733184814453
 11
88.42884826660156
 21
37.46205902099609
  0
LINE
  5
15C
100
AcDbEntity
  8
0
  6
ByLayer
 62
  256
370
   -1
100
AcDbLine
 10
88.42884826660156
 20
37.46205902099609
 11
89.63357543945312
 21
38.51858139038086
  0
LINE
  5
15D
100
AcDbEntity
  8
0
  6
ByLayer
 62
  256
370
   -1
100
AcDbLine
 10
89.63357543945312
 20
38.51858139038086
 11
90.96590423583984
 21
39.4088134765625
  0
LINE
  5
15E
100
AcDbEntity
  8
0
  6
ByLayer
 62
  256
370
   -1
100
AcDbLine
 10
90.96590423583984
 20
39.4088134765625
 11
92.40303802490234
 21
40.11752700805664
  0
LINE
  5
15F
100
AcDbEntity
  8
0
  6
ByLayer
 62
  256
370
   -1
100
AcDbLine
 10
92.40303802490234
 20
40.11752700805664
 11
93.92037200927734
 21
40.63259124755859
  0
LINE
  5
160
100
AcDbEntity
  8
0
  6
ByLayer
 62
  256
370
   -1
100
AcDbLine
 10
93.92037200927734
 20
40.63259124755859
 11
95.49195861816406
 21
40.9452018737793
  0
LINE
  5
161
100
AcDbEntity
  8
0
  6
ByLayer
 62
  256
370
   -1
100
AcDbLine
 10
95.49195861816406
 20
40.9452018737793
 11
97.09090423583984
 21
41.05000305175781
  0
LINE
  5
162
100
AcDbEntity
  8
0
  6
ByLayer
 62
  256
370
   -1
100
AcDbLine
 10
97.09090423583984
 20
41.05000305175781
 11
98.68984985351562
 21
40.94519805908203
  0
LINE
  5
163
100
AcDbEntity
  8
0
  6
ByLayer
 62
  256
370
   -1
100
AcDbLine
 10
98.68984985351562
 20
40.94519805908203
 11
100.2614440917969
 21
40.63259124755859
  0
LINE
  5
164
100
AcDbEntity
  8
0
  6
ByLayer
 62
  256
370
   -1
100
AcDbLine
 10
100.2614440917969
 20
40.63259124755859
 11
101.7787780761719
 21
40.11752319335938
  0
LINE
  5
165
100
AcDbEntity
  8
0
  6
ByLayer
 62
  256
370
   -1
100
AcDbLine
 10
101.7787780761719
 20
40.11752319335938
 11
103.2159042358398
 21
39.40880966186523
  0
LINE
  5
166
100
AcDbEntity
  8
0
  6
ByLayer
 62
  256
370
   -1
100
AcDbLine
 10
103.2159042358398
 20
39.40880966186523
 11
104.5482330322266
 21
38.51857757568359
  0
LINE
  5
167
100
AcDbEntity
  8
0
  6
ByLayer
 62
  256
370
   -1
100
AcDbLine
 10
104.5482330322266
 20
38.51857757568359
 11
105.7529602050781
 21
37.46205902099609
  0
LINE
  5
168
100
AcDbEntity
  8
0
  6
ByLayer
 62
  256
370
   -1
100
AcDbLine
 10
105.7529602050781
 20
37.46205902099609
 11
106.8094863891602
 21
36.25732803344727
  0
LINE
  5
169
100
AcDbEntity
  8
0
  6
ByLayer
 62
  256
370
   -1
100
AcDbLine
 10
106.8094863891602
 20
36.25732803344727
 11
107.6997146606445
 21
34.92499923706055
  0
LINE
  5
16A
100
AcDbEntity
  8
0
  6
ByLayer
 62
  256
370
   -1
100
AcDbLine
 10
107.6997146606445
 20
34.92499923706055
 11
108.4084320068359
 21
33.48786926269531
  0
LINE
  5
16B
100
AcDbEntity
  8
0
  6
ByLayer
 62
  256
370
   -1
100
AcDbLine
 10
108.4084320068359
 20
33.48786926269531
 11
108.9234924316406
 21
31.97053146362305
  0
LINE
  5
16C
100
AcDbEntity
  8
0
  6
ByLayer
 62
  256
370
   -1
100
AcDbLine
 10
108.9234924316406
 20
31.97053146362305
 11
109.2361068725586
 21
30.39894485473633
  0
LINE
  5
16D
100
AcDbEntity
  8
0
  6
ByLayer
 62
  256
370
   -1
100
AcDbLine
 10
109.3409042358398
 20
28.79999923706055
 11
109.2361068725586
 21
30.39894485473633
  0
LINE
  5
16E
100
AcDbEntity
  8
0
  6
ByLayer
 62
  256
370
   -1
100
AcDbLine
 10
138.1409301757812
 20
28.80000305175781
 11
138.0361175537109
 21
27.2010555267334
  0
LINE
  5
16F
100
AcDbEntity
  8
0
  6
ByLayer
 62
  256
370
   -1
100
AcDbLine
 10
138.0361175537109
 20
27.2010555267334
 11
137.7235107421875
 21
25.62946891784668
  0
LINE
  5
170
100
AcDbEntity
  8
0
  6
ByLayer
 62
  256
370
   -1
100
AcDbLine
 10
137.7235107421875
 20
25.62946891784668
 11
137.2084503173828
 21
24.11212921142578
  0
LINE
  5
171
100
AcDbEntity
  8
0
  6
ByLayer
 62
  256
370
   -1
100
AcDbLine
 10
137.2084503173828
 20
24.11212921142578
 11
136.4997406005859
 21
22.67500305175781
  0
LINE
  5
172
100
AcDbEntity
  8
0
  6
ByLayer
 62
  256
370
   -1
100
AcDbLine
 10
136.4997406005859
 20
22.67500305175781
 11
135.6094970703125
 21
21.34267425537109
  0
LINE
  5
173
100
AcDbEntity
  8
0
  6
ByLayer
 62
  256
370
   -1
100
AcDbLine
 10
135.6094970703125
 20
21.34267425537109
 11
134.552978515625
 21
20.13794326782227
  0
LINE
  5
174
100
AcDbEntity
  8
0
  6
ByLayer
 62
  256
370
   -1
100
AcDbLine
 10
134.552978515625
 20
20.13794326782227
 11
133.3482513427734
 21
19.08142471313477
  0
LINE
  5
175
100
AcDbEntity
  8
0
  6
ByLayer
 62
  256
370
   -1
100
AcDbLine
 10
133.3482513427734
 20
19.08142471313477
 11
132.0159301757812
 21
18.19119071960449
  0
LINE
  5
176
100
AcDbEntity
  8
0
  6
ByLayer
 62
  256
370
   -1
100
AcDbLine
 10
132.0159301757812
 20
18.19119071960449
 11
130.5787963867188
 21
17.48247718811035
  0
LINE
  5
177
100
AcDbEntity
  8
0
  6
ByLayer
 62
  256
370
   -1
100
AcDbLine
 10
130.5787963867188
 20
17.48247718811035
 11
129.0614624023438
 21
16.96741104125977
  0
LINE
  5
178
100
AcDbEntity
  8
0
  6
ByLayer
 62
  256
370
   -1
100
AcDbLine
 10
129.0614624023438
 20
16.96741104125977
 11
127.4898681640625
 21
16.65480041503906
  0
LINE
  5
179
100
AcDbEntity
  8
0
  6
ByLayer
 62
  256
370
   -1
100
AcDbLine
 10
127.4898681640625
 20
16.65480041503906
 11
125.8909225463867
 21
16.55000114440918
  0
LINE
  5
17A
100
AcDbEntity
  8
0
  6
ByLayer
 62
  256
370
   -1
100
AcDbLine
 10
125.8909225463867
 20
16.55000114440918
 11
124.2919769287109
 21
16.65480041503906
  0
LINE
  5
17B
100
AcDbEntity
  8
0
  6
ByLayer
 62
  256
370
   -1
100
AcDbLine
 10
124.2919769287109
 20
16.65480041503906
 11
122.7203903198242
 21
16.96740913391113
  0
LINE
  5
17C
100
AcDbEntity
  8
0
  6
ByLayer
 62
  256
370
   -1
100
AcDbLine
 10
122.7203903198242
 20
16.96740913391113
 11
121.2030487060547
 21
17.48247528076172
  0
LINE
  5
17D
100
AcDbEntity
  8
0
  6
ByLayer
 62
  256
370
   -1
100
AcDbLine
 10
121.2030487060547
 20
17.48247528076172
 11
119.7659225463867
 21
18.19118881225586
  0
LINE
  5
17E
100
AcDbEntity
  8
0
  6
ByLayer
 62
  256
370
   -1
100
AcDbLine
 10
119.7659225463867
 20
18.19118881225586
 11
118.43359375
 21
19.0814208984375
  0
LINE
  5
17F
100
AcDbEntity
  8
0
  6
ByLayer
 62
  256
370
   -1
100
AcDbLine
 10
118.43359375
 20
19.0814208984375
 11
117.2288665771484
 21
20.13794326782227
  0
LINE
  5
180
100
AcDbEntity
  8
0
  6
ByLayer
 62
  256
370
   -1
100
AcDbLine
 10
117.2288665771484
 20
20.13794326782227
 11
116.1723480224609
 21
21.34267234802246
  0
LINE
  5
181
100
AcDbEntity
  8
0
  6
ByLayer
 62
  256
370
   -1
100
AcDbLine
 10
116.1723480224609
 20
21.34267234802246
 11
115.282112121582
 21
22.67499923706055
  0
LINE
  5
182
100
AcDbEntity
  8
0
  6
ByLayer
 62
  256
370
   -1
100
AcDbLine
 10
115.282112121582
 20
22.67499923706055
 11
114.5733947753906
 21
24.11212921142578
  0
LINE
  5
183
100
AcDbEntity
  8
0
  6
ByLayer
 62
  256
370
   -1
100
AcDbLine
 10
114.5733947753906
 20
24.11212921142578
 11
114.0583343505859
 21
25.62946701049805
  0
LINE
  5
184
100
AcDbEntity
  8
0
  6
ByLayer
 62
  256
370
   -1
100
AcDbLine
 10
114.0583343505859
 20
25.62946701049805
 11
113.745719909668
 21
27.20105361938477
  0
LINE
  5
185
100
AcDbEntity
  8
0
  6
ByLayer
 62
  256
370
   -1
100
AcDbLine
 10
113.745719909668
 20
27.20105361938477
 11
113.6409225463867
 21
28.79999923706055
  0
LINE
  5
186
100
AcDbEntity
  8
0
  6
ByLayer
 62
  256
370
   -1
100
AcDbLine
 10
113.6409225463867
 20
28.79999923706055
 11
113.745719909668
 21
30.39894676208496
  0
LINE
  5
187
100
AcDbEntity
  8
0
  6
ByLayer
 62
  256
370
   -1
100
AcDbLine
 10
113.745719909668
 20
30.39894676208496
 11
114.0583343505859
 21
31.97053337097168
  0
LINE
  5
188
100
AcDbEntity
  8
0
  6
ByLayer
 62
  256
370
   -1
100
AcDbLine
 10
114.0583343505859
 20
31.97053337097168
 11
114.5733947753906
 21
33.48787307739258
  0
LINE
  5
189
100
AcDbEntity
  8
0
  6
ByLayer
 62
  256
370
   -1
100
AcDbLine
 10
114.5733947753906
 20
33.48787307739258
 11
115.282112121582
 21
34.92499923706055
  0
LINE
  5
18A
100
AcDbEntity
  8
0
  6
ByLayer
 62
  256
370
   -1
100
AcDbLine
 10
115.282112121582
 20
34.92499923706055
 11
116.1723403930664
 21
36.25732803344727
  0
LINE
  5
18B
100
AcDbEntity
  8
0
  6
ByLayer
 62
  256
370
   -1
100
AcDbLine
 10
116.1723403930664
 20
36.25732803344727
 11
117.2288665771484
 21
37.46205902099609
  0
LINE
  5
18C
100
AcDbEntity
  8
0
  6
ByLayer
 62
  256
370
   -1
100
AcDbLine
 10
117.2288665771484
 20
37.46205902099609
 11
118.43359375
 21
38.51857757568359
  0
LINE
  5
18D
100
AcDbEntity
  8
0
  6
ByLayer
 62
  256
370
   -1
100
AcDbLine
 10
118.43359375
 20
38.51857757568359
 11
119.7659225463867
 21
39.4088134765625
  0
LINE
  5
18E
100
AcDbEntity
  8
0
  6
ByLayer
 62
  256
370
   -1
100
AcDbLine
 10
119.7659225463867
 20
39.4088134765625
 11
121.2030487060547
 21
40.11752319335938
  0
LINE
  5
18F
100
AcDbEntity
  8
0
  6
ByLayer
 62
  256
370
   -1
100
AcDbLine
 10
121.2030487060547
 20
40.11752319335938
 11
122.7203903198242
 21
40.63259124755859
  0
LINE
  5
190
100
AcDbEntity
  8
0
  6
ByLayer
 62
  256
370
   -1
100
AcDbLine
 10
122.7203903198242
 20
40.63259124755859
 11
124.2919769287109
 21
40.9452018737793
  0
LINE
  5
191
100
AcDbEntity
  8
0
  6
ByLayer
 62
  256
370
   -1
100
AcDbLine
 10
124.2919769287109
 20
40.9452018737793
 11
125.8909225463867
 21
41.05000305175781
  0
LINE
  5
192
100
AcDbEntity
  8
0
  6
ByLayer
 62
  256
370
   -1
100
AcDbLine
 10
125.8909225463867
 20
41.05000305175781
 11
127.4898681640625
 21
40.9452018737793
  0
LINE
  5
193
100
AcDbEntity
  8
0
  6
ByLayer
 62
  256
370
   -1
100
AcDbLine
 10
127.4898681640625
 20
40.9452018737793
 11
129.0614624023438
 21
40.63259124755859
  0
LINE
  5
194
100
AcDbEntity
  8
0
  6
ByLayer
 62
  256
370
   -1
100
AcDbLine
 10
129.0614624023438
 20
40.63259124755859
 11
130.5787963867188
 21
40.11752700805664
  0
LINE
  5
195
100
AcDbEntity
  8
0
  6
ByLayer
 62
  256
370
   -1
100
AcDbLine
 10
130.5787963867188
 20
40.11752700805664
 11
132.0159149169922
 21
39.4088134765625
  0
LINE
  5
196
100
AcDbEntity
  8
0
  6
ByLayer
 62
  256
370
   -1
100
AcDbLine
 10
132.0159149169922
 20
39.4088134765625
 11
133.3482513427734
 21
38.51858139038086
  0
LINE
  5
197
100
AcDbEntity
  8
0
  6
ByLayer
 62
  256
370
   -1
100
AcDbLine
 10
133.3482513427734
 20
38.51858139038086
 11
134.552978515625
 21
37.46205902099609
  0
LINE
  5
198
100
AcDbEntity
  8
0
  6
ByLayer
 62
  256
370
   -1
100
AcDbLine
 10
134.552978515625
 20
37.46205902099609
 11
135.6094970703125
 21
36.25732803344727
  0
LINE
  5
199
100
AcDbEntity
  8
0
  6
ByLayer
 62
  256
370
   -1
100
AcDbLine
 10
135.6094970703125
 20
36.25732803344727
 11
136.4997253417969
 21
34.92500305175781
  0
LINE
  5
19A
100
AcDbEntity
  8
0
  6
ByLayer
 62
  256
370
   -1
100
AcDbLine
 10
136.4997253417969
 20
34.92500305175781
 11
137.2084503173828
 21
33.48787307739258
  0
LINE
  5
19B
100
AcDbEntity
  8
0
  6
ByLayer
 62
  256
370
   -1
100
AcDbLine
 10
137.2084503173828
 20
33.48787307739258
 11
137.7235107421875
 21
31.97053527832031
  0
LINE
  5
19C
100
AcDbEntity
  8
0
  6
ByLayer
 62
  256
370
   -1
100
AcDbLine
 10
137.7235107421875
 20
31.97053527832031
 11
138.0361175537109
 21
30.39894866943359
  0
LINE
  5
19D
100
AcDbEntity
  8
0
  6
ByLayer
 62
  256
370
   -1
100
AcDbLine
 10
138.1409301757812
 20
28.80000305175781
 11
138.0361175537109
 21
30.39894866943359
  0
LINE
  5
19E
100
AcDbEntity
  8
0
  6
ByLayer
 62
  256
370
   -1
100
AcDbLine
 10
166.3089904785156
 20
22.80001068115234
 11
166.2041931152344
 21
21.20106506347656
  0
LINE
  5
19F
100
AcDbEntity
  8
0
  6
ByLayer
 62
  256
370
   -1
100
AcDbLine
 10
166.2041931152344
 20
21.20106506347656
 11
165.8915863037109
 21
19.62947654724121
  0
LINE
  5
1A0
100
AcDbEntity
  8
0
  6
ByLayer
 62
  256
370
   -1
100
AcDbLine
 10
165.8915863037109
 20
19.62947654724121
 11
165.3765258789062
 21
18.11213684082031
  0
LINE
  5
1A1
100
AcDbEntity
  8
0
  6
ByLayer
 62
  256
370
   -1
100
AcDbLine
 10
165.3765258789062
 20
18.11213684082031
 11
164.6678009033203
 21
16.67500877380371
  0
LINE
  5
1A2
100
AcDbEntity
  8
0
  6
ByLayer
 62
  256
370
   -1
100
AcDbLine
 10
164.6678009033203
 20
16.67500877380371
 11
163.7775726318359
 21
15.34268093109131
  0
LINE
  5
1A3
100
AcDbEntity
  8
0
  6
ByLayer
 62
  256
370
   -1
100
AcDbLine
 10
163.7775726318359
 20
15.34268093109131
 11
162.7210540771484
 21
14.13794994354248
  0
LINE
  5
1A4
100
AcDbEntity
  8
0
  6
ByLayer
 62
  256
370
   -1
100
AcDbLine
 10
162.7210540771484
 20
14.13794994354248
 11
161.5163269042969
 21
13.08142852783203
  0
LINE
  5
1A5
100
AcDbEntity
  8
0
  6
ByLayer
 62
  256
370
   -1
100
AcDbLine
 10
161.5163269042969
 20
13.08142852783203
 11
160.1840057373047
 21
12.19119453430176
  0
LINE
  5
1A6
100
AcDbEntity
  8
0
  6
ByLayer
 62
  256
370
   -1
100
AcDbLine
 10
160.1840057373047
 20
12.19119453430176
 11
158.7468719482422
 21
11.4824800491333
  0
LINE
  5
1A7
100
AcDbEntity
  8
0
  6
ByLayer
 62
  256
370
   -1
100
AcDbLine
 10
158.7468719482422
 20
11.4824800491333
 11
157.2295379638672
 21
10.96741199493408
  0
LINE
  5
1A8
100
AcDbEntity
  8
0
  6
ByLayer
 62
  256
370
   -1
100
AcDbLine
 10
157.2295379638672
 20
10.96741199493408
 11
155.6579437255859
 21
10.6548023223877
  0
LINE
  5
1A9
100
AcDbEntity
  8
0
  6
ByLayer
 62
  256
370
   -1
100
AcDbLine
 10
155.6579437255859
 20
10.6548023223877
 11
154.0590057373047
 21
10.55000114440918
  0
LINE
  5
1AA
100
AcDbEntity
  8
0
  6
ByLayer
 62
  256
370
   -1
100
AcDbLine
 10
154.0590057373047
 20
10.55000114440918
 11
152.4600524902344
 21
10.65480041503906
  0
LINE
  5
1AB
100
AcDbEntity
  8
0
  6
ByLayer
 62
  256
370
   -1
100
AcDbLine
 10
152.4600524902344
 20
10.65480041503906
 11
150.8884735107422
 21
10.9674072265625
  0
LINE
  5
1AC
100
AcDbEntity
  8
0
  6
ByLayer
 62
  256
370
   -1
100
AcDbLine
 10
150.8884735107422
 20
10.9674072265625
 11
149.3711242675781
 21
11.48247337341309
  0
LINE
  5
1AD
100
AcDbEntity
  8
0
  6
ByLayer
 62
  256
370
   -1
100
AcDbLine
 10
149.3711242675781
 20
11.48247337341309
 11
147.9340057373047
 21
12.19118499755859
  0
LINE
  5
1AE
100
AcDbEntity
  8
0
  6
ByLayer
 62
  256
370
   -1
100
AcDbLine
 10
147.9340057373047
 20
12.19118499755859
 11
146.6016693115234
 21
13.08141708374023
  0
LINE
  5
1AF
100
AcDbEntity
  8
0
  6
ByLayer
 62
  256
370
   -1
100
AcDbLine
 10
146.6016693115234
 20
13.08141708374023
 11
145.3969421386719
 21
14.13793659210205
  0
LINE
  5
1B0
100
AcDbEntity
  8
0
  6
ByLayer
 62
  256
370
   -1
100
AcDbLine
 10
145.3969421386719
 20
14.13793659210205
 11
144.3404235839844
 21
15.34266662597656
  0
LINE
  5
1B1
100
AcDbEntity
  8
0
  6
ByLayer
 62
  256
370
   -1
100
AcDbLine
 10
144.3404235839844
 20
15.34266662597656
 11
143.4501800537109
 21
16.67499351501465
  0
LINE
  5
1B2
100
AcDbEntity
  8
0
  6
ByLayer
 62
  256
370
   -1
100
AcDbLine
 10
143.4501800537109
 20
16.67499351501465
 11
142.7414703369141
 21
18.11212158203125
  0
LINE
  5
1B3
100
AcDbEntity
  8
0
  6
ByLayer
 62
  256
370
   -1
100
AcDbLine
 10
142.7414703369141
 20
18.11212158203125
 11
142.2263946533203
 21
19.62945938110352
  0
LINE
  5
1B4
100
AcDbEntity
  8
0
  6
ByLayer
 62
  256
370
   -1
100
AcDbLine
 10
142.2263946533203
 20
19.62945938110352
 11
141.9137878417969
 21
21.20104598999023
  0
LINE
  5
1B5
100
AcDbEntity
  8
0
  6
ByLayer
 62
  256
370
   -1
100
AcDbLine
 10
141.9137878417969
 20
21.20104598999023
 11
141.8089904785156
 21
22.79999160766602
  0
LINE
  5
1B6
100
AcDbEntity
  8
0
  6
ByLayer
 62
  256
370
   -1
100
AcDbLine
 10
141.8089904785156
 20
22.79999160766602
 11
141.9137878417969
 21
24.3989372253418
  0
LINE
  5
1B7
100
AcDbEntity
  8
0
  6
ByLayer
 62
  256
370
   -1
100
AcDbLine
 10
141.9137878417969
 20
24.3989372253418
 11
142.2263946533203
 21
25.97052574157715
  0
LINE
  5
1B8
100
AcDbEntity
  8
0
  6
ByLayer
 62
  256
370
   -1
100
AcDbLine
 10
142.2263946533203
 20
25.97052574157715
 11
142.741455078125
 21
27.48786544799805
  0
LINE
  5
1B9
100
AcDbEntity
  8
0
  6
ByLayer
 62
  256
370
   -1
100
AcDbLine
 10
142.741455078125
 20
27.48786544799805
 11
143.4501800537109
 21
28.92499351501465
  0
LINE
  5
1BA
100
AcDbEntity
  8
0
  6
ByLayer
 62
  256
370
   -1
100
AcDbLine
 10
143.4501800537109
 20
28.92499351501465
 11
144.3404083251953
 21
30.25732040405273
  0
LINE
  5
1BB
100
AcDbEntity
  8
0
  6
ByLayer
 62
  256
370
   -1
100
AcDbLine
 10
144.3404083251953
 20
30.25732040405273
 11
145.3969268798828
 21
31.46205139160156
  0
LINE
  5
1BC
100
AcDbEntity
  8
0
  6
ByLayer
 62
  256
370
   -1
100
AcDbLine
 10
145.3969268798828
 20
31.46205139160156
 11
146.6016540527344
 21
32.51857376098633
  0
LINE
  5
1BD
100
AcDbEntity
  8
0
  6
ByLayer
 62
  256
370
   -1
100
AcDbLine
 10
146.6016540527344
 20
32.51857376098633
 11
147.9339752197266
 21
33.40880584716797
  0
LINE
  5
1BE
100
AcDbEntity
  8
0
  6
ByLayer
 62
  256
370
   -1
100
AcDbLine
 10
147.9339752197266
 20
33.40880584716797
 11
149.3711090087891
 21
34.11752319335938
  0
LINE
  5
1BF
100
AcDbEntity
  8
0
  6
ByLayer
 62
  256
370
   -1
100
AcDbLine
 10
149.3711090087891
 20
34.11752319335938
 11
150.8884429931641
 21
34.63259124755859
  0
LINE
  5
1C0
100
AcDbEntity
  8
0
  6
ByLayer
 62
  256
370
   -1
100
AcDbLine
 10
150.8884429931641
 20
34.63259124755859
 11
152.4600372314453
 21
34.94519805908203
  0
LINE
  5
1C1
100
AcDbEntity
  8
0
  6
ByLayer
 62
  256
370
   -1
100
AcDbLine
 10
152.4600372314453
 20
34.94519805908203
 11
154.0589752197266
 21
35.05000305175781
  0
LINE
  5
1C2
100
AcDbEntity
  8
0
  6
ByLayer
 62
  256
370
   -1
100
AcDbLine
 10
154.0589752197266
 20
35.05000305175781
 11
155.6579284667969
 21
34.9452018737793
  0
LINE
  5
1C3
100
AcDbEntity
  8
0
  6
ByLayer
 62
  256
370
   -1
100
AcDbLine
 10
155.6579284667969
 20
34.9452018737793
 11
157.2295074462891
 21
34.63259506225586
  0
LINE
  5
1C4
100
AcDbEntity
  8
0
  6
ByLayer
 62
  256
370
   -1
100
AcDbLine
 10
157.2295074462891
 20
34.63259506225586
 11
158.7468566894531
 21
34.11753082275391
  0
LINE
  5
1C5
100
AcDbEntity
  8
0
  6
ByLayer
 62
  256
370
   -1
100
AcDbLine
 10
158.7468566894531
 20
34.11753082275391
 11
160.1839752197266
 21
33.40881729125977
  0
LINE
  5
1C6
100
AcDbEntity
  8
0
  6
ByLayer
 62
  256
370
   -1
100
AcDbLine
 10
160.1839752197266
 20
33.40881729125977
 11
161.5163116455078
 21
32.51858520507812
  0
LINE
  5
1C7
100
AcDbEntity
  8
0
  6
ByLayer
 62
  256
370
   -1
100
AcDbLine
 10
161.5163116455078
 20
32.51858520507812
 11
162.7210388183594
 21
31.46206665039062
  0
LINE
  5
1C8
100
AcDbEntity
  8
0
  6
ByLayer
 62
  256
370
   -1
100
AcDbLine
 10
162.7210388183594
 20
31.46206665039062
 11
163.7775573730469
 21
30.2573356628418
  0
LINE
  5
1C9
100
AcDbEntity
  8
0
  6
ByLayer
 62
  256
370
   -1
100
AcDbLine
 10
163.7775573730469
 20
30.2573356628418
 11
164.6678009033203
 21
28.92500877380371
  0
LINE
  5
1CA
100
AcDbEntity
  8
0
  6
ByLayer
 62
  256
370
   -1
100
AcDbLine
 10
164.6678009033203
 20
28.92500877380371
 11
165.3765106201172
 21
27.48788070678711
  0
LINE
  5
1CB
100
AcDbEntity
  8
0
  6
ByLayer
 62
  256
370
   -1
100
AcDbLine
 10
165.3765106201172
 20
27.48788070678711
 11
165.8915863037109
 21
25.97054290771484
  0
LINE
  5
1CC
100
AcDbEntity
  8
0
  6
ByLayer
 62
  256
370
   -1
100
AcDbLine
 10
165.8915863037109
 20
25.97054290771484
 11
166.2041931152344
 21
24.39895629882812
  0
LINE
  5
1CD
100
AcDbEntity
  8
0
  6
ByLayer
 62
  256
370
   -1
100
AcDbLine
 10
166.3089904785156
 20
22.80001068115234
 11
166.2041931152344
 21
24.39895629882812
  0
LINE
  5
1CE
100
AcDbEntity
  8
0
  6
ByLayer
 62
  256
370
   -1
100
AcDbLine
 10
38.43000030517578
 20
-12.00000286102295
 11
38.32519912719727
 21
-13.59894847869873
  0
LINE
  5
1CF
100
AcDbEntity
  8
0
  6
ByLayer
 62
  256
370
   -1
100
AcDbLine
 10
38.32519912719727
 20
-13.59894847869873
 11
38.01259231567383
 21
-15.17053604125977
  0
LINE
  5
1D0
100
AcDbEntity
  8
0
  6
ByLayer
 62
  256
370
   -1
100
AcDbLine
 10
38.01259231567383
 20
-15.17053604125977
 11
37.49752426147461
 21
-16.68787384033203
  0
LINE
  5
1D1
100
AcDbEntity
  8
0
  6
ByLayer
 62
  256
370
   -1
100
AcDbLine
 10
37.49752426147461
 20
-16.68787384033203
 11
36.78881072998047
 21
-18.12500190734863
  0
LINE
  5
1D2
100
AcDbEntity
  8
0
  6
ByLayer
 62
  256
370
   -1
100
AcDbLine
 10
36.78881072998047
 20
-18.12500190734863
 11
35.89857482910156
 21
-19.45732879638672
  0
LINE
  5
1D3
100
AcDbEntity
  8
0
  6
ByLayer
 62
  256
370
   -1
100
AcDbLine
 10
35.89857482910156
 20
-19.45732879638672
 11
34.84205627441406
 21
-20.66205978393555
  0
LINE
  5
1D4
100
AcDbEntity
  8
0
  6
ByLayer
 62
  256
370
   -1
100
AcDbLine
 10
34.84205627441406
 20
-20.66205978393555
 11
33.63732528686523
 21
-21.71858024597168
  0
LINE
  5
1D5
100
AcDbEntity
  8
0
  6
ByLayer
 62
  256
370
   -1
100
AcDbLine
 10
33.63732528686523
 20
-21.71858024597168
 11
32.30499649047852
 21
-22.60881233215332
  0
LINE
  5
1D6
100
AcDbEntity
  8
0
  6
ByLayer
 62
  256
370
   -1
100
AcDbLine
 10
32.30499649047852
 20
-22.60881233215332
 11
30.86787033081055
 21
-23.31752395629883
  0
LINE
  5
1D7
100
AcDbEntity
  8
0
  6
ByLayer
 62
  256
370
   -1
100
AcDbLine
 10
30.86787033081055
 20
-23.31752395629883
 11
29.35053062438965
 21
-23.83259201049805
  0
LINE
  5
1D8
100
AcDbEntity
  8
0
  6
ByLayer
 62
  256
370
   -1
100
AcDbLine
 10
29.35053062438965
 20
-23.83259201049805
 11
27.77894401550293
 21
-24.14519882202148
  0
LINE
  5
1D9
100
AcDbEntity
  8
0
  6
ByLayer
 62
  256
370
   -1
100
AcDbLine
 10
27.77894401550293
 20
-24.14519882202148
 11
26.17999839782715
 21
-24.25
  0
LINE
  5
1DA
100
AcDbEntity
  8
0
  6
ByLayer
 62
  256
370
   -1
100
AcDbLine
 10
26.17999839782715
 20
-24.25
 11
24.58105087280273
 21
-24.14519882202148
  0
LINE
  5
1DB
100
AcDbEntity
  8
0
  6
ByLayer
 62
  256
370
   -1
100
AcDbLine
 10
24.58105087280273
 20
-24.14519882202148
 11
23.00946426391602
 21
-23.83259201049805
  0
LINE
  5
1DC
100
AcDbEntity
  8
0
  6
ByLayer
 62
  256
370
   -1
100
AcDbLine
 10
23.00946426391602
 20
-23.83259201049805
 11
21.49212646484375
 21
-23.31752395629883
  0
LINE
  5
1DD
100
AcDbEntity
  8
0
  6
ByLayer
 62
  256
370
   -1
100
AcDbLine
 10
21.49212646484375
 20
-23.31752395629883
 11
20.05499839782715
 21
-22.60881042480469
  0
LINE
  5
1DE
100
AcDbEntity
  8
0
  6
ByLayer
 62
  256
370
   -1
100
AcDbLine
 10
20.05499839782715
 20
-22.60881042480469
 11
18.72267150878906
 21
-21.71857643127441
  0
LINE
  5
1DF
100
AcDbEntity
  8
0
  6
ByLayer
 62
  256
370
   -1
100
AcDbLine
 10
18.72267150878906
 20
-21.71857643127441
 11
17.51794052124023
 21
-20.66205596923828
  0
LINE
  5
1E0
100
AcDbEntity
  8
0
  6
ByLayer
 62
  256
370
   -1
100
AcDbLine
 10
17.51794052124023
 20
-20.66205596923828
 11
16.4614200592041
 21
-19.45732498168945
  0
LINE
  5
1E1
100
AcDbEntity
  8
0
  6
ByLayer
 62
  256
370
   -1
100
AcDbLine
 10
16.4614200592041
 20
-19.45732498168945
 11
15.57118797302246
 21
-18.12499809265137
  0
LINE
  5
1E2
100
AcDbEntity
  8
0
  6
ByLayer
 62
  256
370
   -1
100
AcDbLine
 10
15.57118797302246
 20
-18.12499809265137
 11
14.86247539520264
 21
-16.68787002563477
  0
LINE
  5
1E3
100
AcDbEntity
  8
0
  6
ByLayer
 62
  256
370
   -1
100
AcDbLine
 10
14.86247539520264
 20
-16.68787002563477
 11
14.34740829467773
 21
-15.17053031921387
  0
LINE
  5
1E4
100
AcDbEntity
  8
0
  6
ByLayer
 62
  256
370
   -1
100
AcDbLine
 10
14.34740829467773
 20
-15.17053031921387
 11
14.03480052947998
 21
-13.59894371032715
  0
LINE
  5
1E5
100
AcDbEntity
  8
0
  6
ByLayer
 62
  256
370
   -1
100
AcDbLine
 10
14.03480052947998
 20
-13.59894371032715
 11
13.93000030517578
 21
-11.99999713897705
  0
LINE
  5
1E6
100
AcDbEntity
  8
0
  6
ByLayer
 62
  256
370
   -1
100
AcDbLine
 10
13.93000030517578
 20
-11.99999713897705
 11
14.0348014831543
 21
-10.40105152130127
  0
LINE
  5
1E7
100
AcDbEntity
  8
0
  6
ByLayer
 62
  256
370
   -1
100
AcDbLine
 10
14.0348014831543
 20
-10.40105152130127
 11
14.34740924835205
 21
-8.829463958740234
  0
LINE
  5
1E8
100
AcDbEntity
  8
0
  6
ByLayer
 62
  256
370
   -1
100
AcDbLine
 10
14.34740924835205
 20
-8.829463958740234
 11
14.86247730255127
 21
-7.312125682830811
  0
LINE
  5
1E9
100
AcDbEntity
  8
0
  6
ByLayer
 62
  256
370
   -1
100
AcDbLine
 10
14.86247730255127
 20
-7.312125682830811
 11
15.57119083404541
 21
-5.874997615814209
  0
LINE
  5
1EA
100
AcDbEntity
  8
0
  6
ByLayer
 62
  256
370
   -1
100
AcDbLine
 10
15.57119083404541
 20
-5.874997615814209
 11
16.46142387390137
 21
-4.542670249938965
  0
LINE
  5
1EB
100
AcDbEntity
  8
0
  6
ByLayer
 62
  256
370
   -1
100
AcDbLine
 10
16.46142387390137
 20
-4.542670249938965
 11
17.5179443359375
 21
-3.337940216064453
  0
LINE
  5
1EC
100
AcDbEntity
  8
0
  6
ByLayer
 62
  256
370
   -1
100
AcDbLine
 10
17.5179443359375
 20
-3.337940216064453
 11
18.72267532348633
 21
-2.28141975402832
  0
LINE
  5
1ED
100
AcDbEntity
  8
0
  6
ByLayer
 62
  256
370
   -1
100
AcDbLine
 10
18.72267532348633
 20
-2.28141975402832
 11
20.05500221252441
 21
-1.39118766784668
  0
LINE
  5
1EE
100
AcDbEntity
  8
0
  6
ByLayer
 62
  256
370
   -1
100
AcDbLine
 10
20.05500221252441
 20
-1.39118766784668
 11
21.49213027954102
 21
-0.6824750900268555
  0
LINE
  5
1EF
100
AcDbEntity
  8
0
  6
ByLayer
 62
  256
370
   -1
100
AcDbLine
 10
21.49213027954102
 20
-0.6824750900268555
 11
23.00946998596191
 21
-0.1674079895019531
  0
LINE
  5
1F0
100
AcDbEntity
  8
0
  6
ByLayer
 62
  256
370
   -1
100
AcDbLine
 10
23.00946998596191
 20
-0.1674079895019531
 11
24.58105659484863
 21
0.1451997756958008
  0
LINE
  5
1F1
100
AcDbEntity
  8
0
  6
ByLayer
 62
  256
370
   -1
100
AcDbLine
 10
24.58105659484863
 20
0.1451997756958008
 11
26.18000221252441
 21
0.25
  0
LINE
  5
1F2
100
AcDbEntity
  8
0
  6
ByLayer
 62
  256
370
   -1
100
AcDbLine
 10
26.18000221252441
 20
0.25
 11
27.77894973754883
 21
0.1451988220214844
  0
LINE
  5
1F3
100
AcDbEntity
  8
0
  6
ByLayer
 62
  256
370
   -1
100
AcDbLine
 10
27.77894973754883
 20
0.1451988220214844
 11
29.35053634643555
 21
-0.1674089431762695
  0
LINE
  5
1F4
100
AcDbEntity
  8
0
  6
ByLayer
 62
  256
370
   -1
100
AcDbLine
 10
29.35053634643555
 20
-0.1674089431762695
 11
30.86787414550781
 21
-0.6824769973754883
  0
LINE
  5
1F5
100
AcDbEntity
  8
0
  6
ByLayer
 62
  256
370
   -1
100
AcDbLine
 10
30.86787414550781
 20
-0.6824769973754883
 11
32.30500411987305
 21
-1.391190528869629
  0
LINE
  5
1F6
100
AcDbEntity
  8
0
  6
ByLayer
 62
  256
370
   -1
100
AcDbLine
 10
32.30500411987305
 20
-1.391190528869629
 11
33.6373291015625
 21
-2.281423568725586
  0
LINE
  5
1F7
100
AcDbEntity
  8
0
  6
ByLayer
 62
  256
370
   -1
100
AcDbLine
 10
33.6373291015625
 20
-2.281423568725586
 11
34.84206008911133
 21
-3.337944030761719
  0
LINE
  5
1F8
100
AcDbEntity
  8
0
  6
ByLayer
 62
  256
370
   -1
100
AcDbLine
 10
34.84206008911133
 20
-3.337944030761719
 11
35.89858245849609
 21
-4.542674541473389
  0
LINE
  5
1F9
100
AcDbEntity
  8
0
  6
ByLayer
 62
  256
370
   -1
100
AcDbLine
 10
35.89858245849609
 20
-4.542674541473389
 11
36.78881072998047
 21
-5.875002384185791
  0
LINE
  5
1FA
100
AcDbEntity
  8
0
  6
ByLayer
 62
  256
370
   -1
100
AcDbLine
 10
36.78881072998047
 20
-5.875002384185791
 11
37.49752426147461
 21
-7.312130451202393
  0
LINE
  5
1FB
100
AcDbEntity
  8
0
  6
ByLayer
 62
  256
370
   -1
100
AcDbLine
 10
37.49752426147461
 20
-7.312130451202393
 11
38.01259231567383
 21
-8.829469680786133
  0
LINE
  5
1FC
100
AcDbEntity
  8
0
  6
ByLayer
 62
  256
370
   -1
100
AcDbLine
 10
38.01259231567383
 20
-8.829469680786133
 11
38.32519912719727
 21
-10.40105628967285
  0
LINE
  5
1FD
100
AcDbEntity
  8
0
  6
ByLayer
 62
  256
370
   -1
100
AcDbLine
 10
38.43000030517578
 20
-12.00000286102295
 11
38.32519912719727
 21
-10.40105628967285
  0
LINE
  5
1FE
100
AcDbEntity
  8
0
  6
ByLayer
 62
  256
370
   -1
100
AcDbLine
 10
12.25
 20
-3.192349595337873e-06
 11
12.14519882202148
 21
-1.598949074745178
  0
LINE
  5
1FF
100
AcDbEntity
  8
0
  6
ByLayer
 62
  256
370
   -1
100
AcDbLine
 10
12.14519882202148
 20
-1.598949074745178
 11
11.83259105682373
 21
-3.170536518096924
  0
LINE
  5
200
100
AcDbEntity
  8
0
  6
ByLayer
 62
  256
370
   -1
100
AcDbLine
 10
11.83259105682373
 20
-3.170536518096924
 11
11.31752300262451
 21
-4.687874794006348
  0
LINE
  5
201
100
AcDbEntity
  8
0
  6
ByLayer
 62
  256
370
   -1
100
AcDbLine
 10
11.31752300262451
 20
-4.687874794006348
 11
10.60880947113037
 21
-6.125002384185791
  0
LINE
  5
202
100
AcDbEntity
  8
0
  6
ByLayer
 62
  256
370
   -1
100
AcDbLine
 10
10.60880947113037
 20
-6.125002384185791
 11
9.718576431274414
 21
-7.457329750061035
  0
LINE
  5
203
100
AcDbEntity
  8
0
  6
ByLayer
 62
  256
370
   -1
100
AcDbLine
 10
9.718576431274414
 20
-7.457329750061035
 11
8.662055969238281
 21
-8.662059783935547
  0
LINE
  5
204
100
AcDbEntity
  8
0
  6
ByLayer
 62
  256
370
   -1
100
AcDbLine
 10
8.662055969238281
 20
-8.662059783935547
 11
7.457324981689453
 21
-9.71858024597168
  0
LINE
  5
205
100
AcDbEntity
  8
0
  6
ByLayer
 62
  256
370
   -1
100
AcDbLine
 10
7.457324981689453
 20
-9.71858024597168
 11
6.124997615814209
 21
-10.60881233215332
  0
LINE
  5
206
100
AcDbEntity
  8
0
  6
ByLayer
 62
  256
370
   -1
100
AcDbLine
 10
6.124997615814209
 20
-10.60881233215332
 11
4.687869071960449
 21
-11.31752586364746
  0
LINE
  5
207
100
AcDbEntity
  8
0
  6
ByLayer
 62
  256
370
   -1
100
AcDbLine
 10
4.687869071960449
 20
-11.31752586364746
 11
3.170530319213867
 21
-11.83259201049805
  0
LINE
  5
208
100
AcDbEntity
  8
0
  6
ByLayer
 62
  256
370
   -1
100
AcDbLine
 10
3.170530319213867
 20
-11.83259201049805
 11
1.598942875862122
 21
-12.1451997756958
  0
LINE
  5
209
100
AcDbEntity
  8
0
  6
ByLayer
 62
  256
370
   -1
100
AcDbLine
 10
1.598942875862122
 20
-12.1451997756958
 11
-2.993667521877796e-06
 21
-12.25
  0
LINE
  5
20A
100
AcDbEntity
  8
0
  6
ByLayer
 62
  256
370
   -1
100
AcDbLine
 10
-2.993667521877796e-06
 20
-12.25
 11
-1.598948836326599
 21
-12.14519882202148
  0
LINE
  5
20B
100
AcDbEntity
  8
0
  6
ByLayer
 62
  256
370
   -1
100
AcDbLine
 10
-1.598948836326599
 20
-12.14519882202148
 11
-3.170536279678345
 21
-11.83259105682373
  0
LINE
  5
20C
100
AcDbEntity
  8
0
  6
ByLayer
 62
  256
370
   -1
100
AcDbLine
 10
-3.170536279678345
 20
-11.83259105682373
 11
-4.687874794006348
 21
-11.31752300262451
  0
LINE
  5
20D
100
AcDbEntity
  8
0
  6
ByLayer
 62
  256
370
   -1
100
AcDbLine
 10
-4.687874794006348
 20
-11.31752300262451
 11
-6.125002384185791
 21
-10.60880947113037
  0
LINE
  5
20E
100
AcDbEntity
  8
0
  6
ByLayer
 62
  256
370
   -1
100
AcDbLine
 10
-6.125002384185791
 20
-10.60880947113037
 11
-7.457329750061035
 21
-9.718576431274414
  0
LINE
  5
20F
100
AcDbEntity
  8
0
  6
ByLayer
 62
  256
370
   -1
100
AcDbLine
 10
-7.457329750061035
 20
-9.718576431274414
 11
-8.662059783935547
 21
-8.662055969238281
  0
LINE
  5
210
100
AcDbEntity
  8
0
  6
ByLayer
 62
  256
370
   -1
100
AcDbLine
 10
-8.662059783935547
 20
-8.662055969238281
 11
-9.71858024597168
 21
-7.457324981689453
  0
LINE
  5
211
100
AcDbEntity
  8
0
  6
ByLayer
 62
  256
370
   -1
100
AcDbLine
 10
-9.71858024597168
 20
-7.457324981689453
 11
-10.60881233215332
 21
-6.124997615814209
  0
LINE
  5
212
100
AcDbEntity
  8
0
  6
ByLayer
 62
  256
370
   -1
100
AcDbLine
 10
-10.60881233215332
 20
-6.124997615814209
 11
-11.31752586364746
 21
-4.687869071960449
  0
LINE
  5
213
100
AcDbEntity
  8
0
  6
ByLayer
 62
  256
370
   -1
100
AcDbLine
 10
-11.31752586364746
 20
-4.687869071960449
 11
-11.83259201049805
 21
-3.170530557632446
  0
LINE
  5
214
100
AcDbEntity
  8
0
  6
ByLayer
 62
  256
370
   -1
100
AcDbLine
 10
-11.83259201049805
 20
-3.170530557632446
 11
-12.1451997756958
 21
-1.598943114280701
  0
LINE
  5
215
100
AcDbEntity
  8
0
  6
ByLayer
 62
  256
370
   -1
100
AcDbLine
 10
-12.1451997756958
 20
-1.598943114280701
 11
-12.25
 21
2.794985448417719e-06
  0
LINE
  5
216
100
AcDbEntity
  8
0
  6
ByLayer
 62
  256
370
   -1
100
AcDbLine
 10
-12.25
 20
2.794985448417719e-06
 11
-12.14519882202148
 21
1.59894859790802
  0
LINE
  5
217
100
AcDbEntity
  8
0
  6
ByLayer
 62
  256
370
   -1
100
AcDbLine
 10
-12.14519882202148
 20
1.59894859790802
 11
-11.83259105682373
 21
3.170536041259766
  0
LINE
  5
218
100
AcDbEntity
  8
0
  6
ByLayer
 62
  256
370
   -1
100
AcDbLine
 10
-11.83259105682373
 20
3.170536041259766
 11
-11.31752300262451
 21
4.687874794006348
  0
LINE
  5
219
100
AcDbEntity
  8
0
  6
ByLayer
 62
  256
370
   -1
100
AcDbLine
 10
-11.31752300262451
 20
4.687874794006348
 11
-10.60880947113037
 21
6.125002384185791
  0
LINE
  5
21A
100
AcDbEntity
  8
0
  6
ByLayer
 62
  256
370
   -1
100
AcDbLine
 10
-10.60880947113037
 20
6.125002384185791
 11
-9.718576431274414
 21
7.457329750061035
  0
LINE
  5
21B
100
AcDbEntity
  8
0
  6
ByLayer
 62
  256
370
   -1
100
AcDbLine
 10
-9.718576431274414
 20
7.457329750061035
 11
-8.662055969238281
 21
8.662059783935547
  0
LINE
  5
21C
100
AcDbEntity
  8
0
  6
ByLayer
 62
  256
370
   -1
100
AcDbLine
 10
-8.662055969238281
 20
8.662059783935547
 11
-7.457324981689453
 21
9.71858024597168
  0
LINE
  5
21D
100
AcDbEntity
  8
0
  6
ByLayer
 62
  256
370
   -1
100
AcDbLine
 10
-7.457324981689453
 20
9.71858024597168
 11
-6.124997615814209
 21
10.60881233215332
  0
LINE
  5
21E
100
AcDbEntity
  8
0
  6
ByLayer
 62
  256
370
   -1
100
AcDbLine
 10
-6.124997615814209
 20
10.60881233215332
 11
-4.687869071960449
 21
11.31752586364746
  0
LINE
  5
21F
100
AcDbEntity
  8
0
  6
ByLayer
 62
  256
370
   -1
100
AcDbLine
 10
-4.687869071960449
 20
11.31752586364746
 11
-3.170530319213867
 21
11.83259201049805
  0
LINE
  5
220
100
AcDbEntity
  8
0
  6
ByLayer
 62
  256
370
   -1
100
AcDbLine
 10
-3.170530319213867
 20
11.83259201049805
 11
-1.598942875862122
 21
12.1451997756958
  0
LINE
  5
221
100
AcDbEntity
  8
0
  6
ByLayer
 62
  256
370
   -1
100
AcDbLine
 10
-1.598942875862122
 20
12.1451997756958
 11
2.993667521877796e-06
 21
12.25
  0
LINE
  5
222
100
AcDbEntity
  8
0
  6
ByLayer
 62
  256
370
   -1
100
AcDbLine
 10
2.993667521877796e-06
 20
12.25
 11
1.598948836326599
 21
12.14519882202148
  0
LINE
  5
223
100
AcDbEntity
  8
0
  6
ByLayer
 62
  256
370
   -1
100
AcDbLine
 10
1.598948836326599
 20
12.14519882202148
 11
3.170536279678345
 21
11.83259105682373
  0
LINE
  5
224
100
AcDbEntity
  8
0
  6
ByLayer
 62
  256
370
   -1
100
AcDbLine
 10
3.170536279678345
 20
11.83259105682373
 11
4.687874794006348
 21
11.31752300262451
  0
LINE
  5
225
100
AcDbEntity
  8
0
  6
ByLayer
 62
  256
370
   -1
100
AcDbLine
 10
4.687874794006348
 20
11.31752300262451
 11
6.125002384185791
 21
10.60880947113037
  0
LINE
  5
226
100
AcDbEntity
  8
0
  6
ByLayer
 62
  256
370
   -1
100
AcDbLine
 10
6.125002384185791
 20
10.60880947113037
 11
7.457329750061035
 21
9.718576431274414
  0
LINE
  5
227
100
AcDbEntity
  8
0
  6
ByLayer
 62
  256
370
   -1
100
AcDbLine
 10
7.457329750061035
 20
9.718576431274414
 11
8.662059783935547
 21
8.662055969238281
  0
LINE
  5
228
100
AcDbEntity
  8
0
  6
ByLayer
 62
  256
370
   -1
100
AcDbLine
 10
8.662059783935547
 20
8.662055969238281
 11
9.71858024597168
 21
7.457324981689453
  0
LINE
  5
229
100
AcDbEntity
  8
0
  6
ByLayer
 62
  256
370
   -1
100
AcDbLine
 10
9.71858024597168
 20
7.457324981689453
 11
10.60881233215332
 21
6.124997615814209
  0
LINE
  5
22A
100
AcDbEntity
  8
0
  6
ByLayer
 62
  256
370
   -1
100
AcDbLine
 10
10.60881233215332
 20
6.124997615814209
 11
11.31752586364746
 21
4.687869071960449
  0
LINE
  5
22B
100
AcDbEntity
  8
0
  6
ByLayer
 62
  256
370
   -1
100
AcDbLine
 10
11.31752586364746
 20
4.687869071960449
 11
11.83259201049805
 21
3.170530080795288
  0
LINE
  5
22C
100
AcDbEntity
  8
0
  6
ByLayer
 62
  256
370
   -1
100
AcDbLine
 10
11.83259201049805
 20
3.170530080795288
 11
12.1451997756958
 21
1.598942637443542
  0
LINE
  5
22D
100
AcDbEntity
  8
0
  6
ByLayer
 62
  256
370
   -1
100
AcDbLine
 10
12.25
 20
-3.192349595337873e-06
 11
12.1451997756958
 21
1.598942637443542
  0
LINE
  5
22E
100
AcDbEntity
  8
0
  6
ByLayer
 62
  256
370
   -1
100
AcDbLine
 10
-16.54999542236328
 20
2.914194737968501e-06
 11
-16.6547966003418
 21
-1.598942995071411
  0
LINE
  5
22F
100
AcDbEntity
  8
0
  6
ByLayer
 62
  256
370
   -1
100
AcDbLine
 10
-16.6547966003418
 20
-1.598942995071411
 11
-16.96740341186523
 21
-3.170530319213867
  0
LINE
  5
230
100
AcDbEntity
  8
0
  6
ByLayer
 62
  256
370
   -1
100
AcDbLine
 10
-16.96740341186523
 20
-3.170530319213867
 11
-17.48246955871582
 21
-4.687869071960449
  0
LINE
  5
231
100
AcDbEntity
  8
0
  6
ByLayer
 62
  256
370
   -1
100
AcDbLine
 10
-17.48246955871582
 20
-4.687869071960449
 11
-18.19118309020996
 21
-6.124997615814209
  0
LINE
  5
232
100
AcDbEntity
  8
0
  6
ByLayer
 62
  256
370
   -1
100
AcDbLine
 10
-18.19118309020996
 20
-6.124997615814209
 11
-19.0814151763916
 21
-7.457324981689453
  0
LINE
  5
233
100
AcDbEntity
  8
0
  6
ByLayer
 62
  256
370
   -1
100
AcDbLine
 10
-19.0814151763916
 20
-7.457324981689453
 11
-20.13793563842773
 21
-8.662055969238281
  0
LINE
  5
234
100
AcDbEntity
  8
0
  6
ByLayer
 62
  256
370
   -1
100
AcDbLine
 10
-20.13793563842773
 20
-8.662055969238281
 11
-21.34266662597656
 21
-9.718576431274414
  0
LINE
  5
235
100
AcDbEntity
  8
0
  6
ByLayer
 62
  256
370
   -1
100
AcDbLine
 10
-21.34266662597656
 20
-9.718576431274414
 11
-22.67499351501465
 21
-10.60880947113037
  0
LINE
  5
236
100
AcDbEntity
  8
0
  6
ByLayer
 62
  256
370
   -1
100
AcDbLine
 10
-22.67499351501465
 20
-10.60880947113037
 11
-24.11212158203125
 21
-11.31752300262451
  0
LINE
  5
237
100
AcDbEntity
  8
0
  6
ByLayer
 62
  256
370
   -1
100
AcDbLine
 10
-24.11212158203125
 20
-11.31752300262451
 11
-25.62945938110352
 21
-11.83259105682373
  0
LINE
  5
238
100
AcDbEntity
  8
0
  6
ByLayer
 62
  256
370
   -1
100
AcDbLine
 10
-25.62945938110352
 20
-11.83259105682373
 11
-27.20104598999023
 21
-12.14519882202148
  0
LINE
  5
239
100
AcDbEntity
  8
0
  6
ByLayer
 62
  256
370
   -1
100
AcDbLine
 10
-27.20104598999023
 20
-12.14519882202148
 11
-28.79999160766602
 21
-12.25
  0
LINE
  5
23A
100
AcDbEntity
  8
0
  6
ByLayer
 62
  256
370
   -1
100
AcDbLine
 10
-28.79999160766602
 20
-12.25
 11
-30.39893913269043
 21
-12.1451997756958
  0
LINE
  5
23B
100
AcDbEntity
  8
0
  6
ByLayer
 62
  256
370
   -1
100
AcDbLine
 10
-30.39893913269043
 20
-12.1451997756958
 11
-31.97052574157715
 21
-11.83259201049805
  0
LINE
  5
23C
100
AcDbEntity
  8
0
  6
ByLayer
 62
  256
370
   -1
100
AcDbLine
 10
-31.97052574157715
 20
-11.83259201049805
 11
-33.48786544799805
 21
-11.31752586364746
  0
LINE
  5
23D
100
AcDbEntity
  8
0
  6
ByLayer
 62
  256
370
   -1
100
AcDbLine
 10
-33.48786544799805
 20
-11.31752586364746
 11
-34.92499160766602
 21
-10.60881233215332
  0
LINE
  5
23E
100
AcDbEntity
  8
0
  6
ByLayer
 62
  256
370
   -1
100
AcDbLine
 10
-34.92499160766602
 20
-10.60881233215332
 11
-36.25732040405273
 21
-9.71858024597168
  0
LINE
  5
23F
100
AcDbEntity
  8
0
  6
ByLayer
 62
  256
370
   -1
100
AcDbLine
 10
-36.25732040405273
 20
-9.71858024597168
 11
-37.46205139160156
 21
-8.662059783935547
  0
LINE
  5
240
100
AcDbEntity
  8
0
  6
ByLayer
 62
  256
370
   -1
100
AcDbLine
 10
-37.46205139160156
 20
-8.662059783935547
 11
-38.51856994628906
 21
-7.457329750061035
  0
LINE
  5
241
100
AcDbEntity
  8
0
  6
ByLayer
 62
  256
370
   -1
100
AcDbLine
 10
-38.51856994628906
 20
-7.457329750061035
 11
-39.40880584716797
 21
-6.125002384185791
  0
LINE
  5
242
100
AcDbEntity
  8
0
  6
ByLayer
 62
  256
370
   -1
100
AcDbLine
 10
-39.40880584716797
 20
-6.125002384185791
 11
-40.11751937866211
 21
-4.687874794006348
  0
LINE
  5
243
100
AcDbEntity
  8
0
  6
ByLayer
 62
  256
370
   -1
100
AcDbLine
 10
-40.11751937866211
 20
-4.687874794006348
 11
-40.63258743286133
 21
-3.170536279678345
  0
LINE
  5
244
100
AcDbEntity
  8
0
  6
ByLayer
 62
  256
370
   -1
100
AcDbLine
 10
-40.63258743286133
 20
-3.170536279678345
 11
-40.94519424438477
 21
-1.598948955535889
  0
LINE
  5
245
100
AcDbEntity
  8
0
  6
ByLayer
 62
  256
370
   -1
100
AcDbLine
 10
-40.94519424438477
 20
-1.598948955535889
 11
-41.04999542236328
 21
-3.073140305787092e-06
  0
LINE
  5
246
100
AcDbEntity
  8
0
  6
ByLayer
 62
  256
370
   -1
100
AcDbLine
 10
-41.04999542236328
 20
-3.073140305787092e-06
 11
-40.94519424438477
 21
1.598942756652832
  0
LINE
  5
247
100
AcDbEntity
  8
0
  6
ByLayer
 62
  256
370
   -1
100
AcDbLine
 10
-40.94519424438477
 20
1.598942756652832
 11
-40.63258743286133
 21
3.170530319213867
  0
LINE
  5
248
100
AcDbEntity
  8
0
  6
ByLayer
 62
  256
370
   -1
100
AcDbLine
 10
-40.63258743286133
 20
3.170530319213867
 11
-40.11752319335938
 21
4.687869071960449
  0
LINE
  5
249
100
AcDbEntity
  8
0
  6
ByLayer
 62
  256
370
   -1
100
AcDbLine
 10
-40.11752319335938
 20
4.687869071960449
 11
-39.40880584716797
 21
6.124997615814209
  0
LINE
  5
24A
100
AcDbEntity
  8
0
  6
ByLayer
 62
  256
370
   -1
100
AcDbLine
 10
-39.40880584716797
 20
6.124997615814209
 11
-38.51857757568359
 21
7.457324981689453
  0
LINE
  5
24B
100
AcDbEntity
  8
0
  6
ByLayer
 62
  256
370
   -1
100
AcDbLine
 10
-38.51857757568359
 20
7.457324981689453
 11
-37.46205520629883
 21
8.662055969238281
  0
LINE
  5
24C
100
AcDbEntity
  8
0
  6
ByLayer
 62
  256
370
   -1
100
AcDbLine
 10
-37.46205520629883
 20
8.662055969238281
 11
-36.25732421875
 21
9.718576431274414
  0
LINE
  5
24D
100
AcDbEntity
  8
0
  6
ByLayer
 62
  256
370
   -1
100
AcDbLine
 10
-36.25732421875
 20
9.718576431274414
 11
-34.92499923706055
 21
10.60880947113037
  0
LINE
  5
24E
100
AcDbEntity
  8
0
  6
ByLayer
 62
  256
370
   -1
100
AcDbLine
 10
-34.92499923706055
 20
10.60880947113037
 11
-33.48786926269531
 21
11.31752300262451
  0
LINE
  5
24F
100
AcDbEntity
  8
0
  6
ByLayer
 62
  256
370
   -1
100
AcDbLine
 10
-33.48786926269531
 20
11.31752300262451
 11
-31.97053146362305
 21
11.83259105682373
  0
LINE
  5
250
100
AcDbEntity
  8
0
  6
ByLayer
 62
  256
370
   -1
100
AcDbLine
 10
-31.97053146362305
 20
11.83259105682373
 11
-30.39894485473633
 21
12.14519882202148
  0
LINE
  5
251
100
AcDbEntity
  8
0
  6
ByLayer
 62
  256
370
   -1
100
AcDbLine
 10
-30.39894485473633
 20
12.14519882202148
 11
-28.79999923706055
 21
12.25
  0
LINE
  5
252
100
AcDbEntity
  8
0
  6
ByLayer
 62
  256
370
   -1
100
AcDbLine
 10
-28.79999923706055
 20
12.25
 11
-27.20105171203613
 21
12.1451997756958
  0
LINE
  5
253
100
AcDbEntity
  8
0
  6
ByLayer
 62
  256
370
   -1
100
AcDbLine
 10
-27.20105171203613
 20
12.1451997756958
 11
-25.62946510314941
 21
11.83259201049805
  0
LINE
  5
254
100
AcDbEntity
  8
0
  6
ByLayer
 62
  256
370
   -1
100
AcDbLine
 10
-25.62946510314941
 20
11.83259201049805
 11
-24.11212539672852
 21
11.31752586364746
  0
LINE
  5
255
100
AcDbEntity
  8
0
  6
ByLayer
 62
  256
370
   -1
100
AcDbLine
 10
-24.11212539672852
 20
11.31752586364746
 11
-22.67499732971191
 21
10.60881233215332
  0
LINE
  5
256
100
AcDbEntity
  8
0
  6
ByLayer
 62
  256
370
   -1
100
AcDbLine
 10
-22.67499732971191
 20
10.60881233215332
 11
-21.34267044067383
 21
9.71858024597168
  0
LINE
  5
257
100
AcDbEntity
  8
0
  6
ByLayer
 62
  256
370
   -1
100
AcDbLine
 10
-21.34267044067383
 20
9.71858024597168
 11
-20.137939453125
 21
8.662059783935547
  0
LINE
  5
258
100
AcDbEntity
  8
0
  6
ByLayer
 62
  256
370
   -1
100
AcDbLine
 10
-20.137939453125
 20
8.662059783935547
 11
-19.08141899108887
 21
7.457329750061035
  0
LINE
  5
259
100
AcDbEntity
  8
0
  6
ByLayer
 62
  256
370
   -1
100
AcDbLine
 10
-19.08141899108887
 20
7.457329750061035
 11
-18.19118499755859
 21
6.125002384185791
  0
LINE
  5
25A
100
AcDbEntity
  8
0
  6
ByLayer
 62
  256
370
   -1
100
AcDbLine
 10
-18.19118499755859
 20
6.125002384185791
 11
-17.48247146606445
 21
4.687874794006348
  0
LINE
  5
25B
100
AcDbEntity
  8
0
  6
ByLayer
 62
  256
370
   -1
100
AcDbLine
 10
-17.48247146606445
 20
4.687874794006348
 11
-16.96740341186523
 21
3.170536279678345
  0
LINE
  5
25C
100
AcDbEntity
  8
0
  6
ByLayer
 62
  256
370
   -1
100
AcDbLine
 10
-16.96740341186523
 20
3.170536279678345
 11
-16.6547966003418
 21
1.59894871711731
  0
LINE
  5
25D
100
AcDbEntity
  8
0
  6
ByLayer
 62
  256
370
   -1
100
AcDbLine
 10
-16.54999542236328
 20
2.914194737968501e-06
 11
-16.6547966003418
 21
1.59894871711731
  0
LINE
  5
25E
100
AcDbEntity
  8
0
  6
ByLayer
 62
  256
370
   -1
100
AcDbLine
 10
24.25
 20
26.18000221252441
 11
24.14519882202148
 21
24.58105659484863
  0
LINE
  5
25F
100
AcDbEntity
  8
0
  6
ByLayer
 62
  256
370
   -1
100
AcDbLine
 10
24.14519882202148
 20
24.58105659484863
 11
23.83259201049805
 21
23.00946998596191
  0
LINE
  5
260
100
AcDbEntity
  8
0
  6
ByLayer
 62
  256
370
   -1
100
AcDbLine
 10
23.83259201049805
 20
23.00946998596191
 11
23.31752395629883
 21
21.49213027954102
  0
LINE
  5
261
100
AcDbEntity
  8
0
  6
ByLayer
 62
  256
370
   -1
100
AcDbLine
 10
23.31752395629883
 20
21.49213027954102
 11
22.60881042480469
 21
20.05500411987305
  0
LINE
  5
262
100
AcDbEntity
  8
0
  6
ByLayer
 62
  256
370
   -1
100
AcDbLine
 10
22.60881042480469
 20
20.05500411987305
 11
21.71857833862305
 21
18.72267532348633
  0
LINE
  5
263
100
AcDbEntity
  8
0
  6
ByLayer
 62
  256
370
   -1
100
AcDbLine
 10
21.71857833862305
 20
18.72267532348633
 11
20.66205596923828
 21
17.5179443359375
  0
LINE
  5
264
100
AcDbEntity
  8
0
  6
ByLayer
 62
  256
370
   -1
100
AcDbLine
 10
20.66205596923828
 20
17.5179443359375
 11
19.45732688903809
 21
16.46142578125
  0
LINE
  5
265
100
AcDbEntity
  8
0
  6
ByLayer
 62
  256
370
   -1
100
AcDbLine
 10
19.45732688903809
 20
16.46142578125
 11
18.125
 21
15.57119274139404
  0
LINE
  5
266
100
AcDbEntity
  8
0
  6
ByLayer
 62
  256
370
   -1
100
AcDbLine
 10
18.125
 20
15.57119274139404
 11
16.68787002563477
 21
14.8624792098999
  0
LINE
  5
267
100
AcDbEntity
  8
0
  6
ByLayer
 62
  256
370
   -1
100
AcDbLine
 10
16.68787002563477
 20
14.8624792098999
 11
15.1705322265625
 21
14.347412109375
  0
LINE
  5
268
100
AcDbEntity
  8
0
  6
ByLayer
 62
  256
370
   -1
100
AcDbLine
 10
15.1705322265625
 20
14.347412109375
 11
13.59894466400146
 21
14.03480434417725
  0
LINE
  5
269
100
AcDbEntity
  8
0
  6
ByLayer
 62
  256
370
   -1
100
AcDbLine
 10
13.59894466400146
 20
14.03480434417725
 11
11.99999904632568
 21
13.93000411987305
  0
LINE
  5
26A
100
AcDbEntity
  8
0
  6
ByLayer
 62
  256
370
   -1
100
AcDbLine
 10
11.99999904632568
 20
13.93000411987305
 11
10.40105247497559
 21
14.03480434417725
  0
LINE
  5
26B
100
AcDbEntity
  8
0
  6
ByLayer
 62
  256
370
   -1
100
AcDbLine
 10
10.40105247497559
 20
14.03480434417725
 11
8.829465866088867
 21
14.34741306304932
  0
LINE
  5
26C
100
AcDbEntity
  8
0
  6
ByLayer
 62
  256
370
   -1
100
AcDbLine
 10
8.829465866088867
 20
14.34741306304932
 11
7.312126636505127
 21
14.86248016357422
  0
LINE
  5
26D
100
AcDbEntity
  8
0
  6
ByLayer
 62
  256
370
   -1
100
AcDbLine
 10
7.312126636505127
 20
14.86248016357422
 11
5.874999046325684
 21
15.57119369506836
  0
LINE
  5
26E
100
AcDbEntity
  8
0
  6
ByLayer
 62
  256
370
   -1
100
AcDbLine
 10
5.874999046325684
 20
15.57119369506836
 11
4.542671680450439
 21
16.46142578125
  0
LINE
  5
26F
100
AcDbEntity
  8
0
  6
ByLayer
 62
  256
370
   -1
100
AcDbLine
 10
4.542671680450439
 20
16.46142578125
 11
3.33794116973877
 21
17.51794815063477
  0
LINE
  5
270
100
AcDbEntity
  8
0
  6
ByLayer
 62
  256
370
   -1
100
AcDbLine
 10
3.33794116973877
 20
17.51794815063477
 11
2.281420707702637
 21
18.72267723083496
  0
LINE
  5
271
100
AcDbEntity
  8
0
  6
ByLayer
 62
  256
370
   -1
100
AcDbLine
 10
2.281420707702637
 20
18.72267723083496
 11
1.391188621520996
 21
20.05500411987305
  0
LINE
  5
272
100
AcDbEntity
  8
0
  6
ByLayer
 62
  256
370
   -1
100
AcDbLine
 10
1.391188621520996
 20
20.05500411987305
 11
0.6824750900268555
 21
21.49213409423828
  0
LINE
  5
273
100
AcDbEntity
  8
0
  6
ByLayer
 62
  256
370
   -1
100
AcDbLine
 10
0.6824750900268555
 20
21.49213409423828
 11
0.1674079895019531
 21
23.00947189331055
  0
LINE
  5
274
100
AcDbEntity
  8
0
  6
ByLayer
 62
  256
370
   -1
100
AcDbLine
 10
0.1674079895019531
 20
23.00947189331055
 11
-0.1451997756958008
 21
24.58105850219727
  0
LINE
  5
275
100
AcDbEntity
  8
0
  6
ByLayer
 62
  256
370
   -1
100
AcDbLine
 10
-0.1451997756958008
 20
24.58105850219727
 11
-0.25
 21
26.18000602722168
  0
LINE
  5
276
100
AcDbEntity
  8
0
  6
ByLayer
 62
  256
370
   -1
100
AcDbLine
 10
-0.25
 20
26.18000602722168
 11
-0.1451997756958008
 21
27.77895164489746
  0
LINE
  5
277
100
AcDbEntity
  8
0
  6
ByLayer
 62
  256
370
   -1
100
AcDbLine
 10
-0.1451997756958008
 20
27.77895164489746
 11
0.1674089431762695
 21
29.35053825378418
  0
LINE
  5
278
100
AcDbEntity
  8
0
  6
ByLayer
 62
  256
370
   -1
100
AcDbLine
 10
0.1674089431762695
 20
29.35053825378418
 11
0.6824760437011719
 21
30.86787796020508
  0
LINE
  5
279
100
AcDbEntity
  8
0
  6
ByLayer
 62
  256
370
   -1
100
AcDbLine
 10
0.6824760437011719
 20
30.86787796020508
 11
1.391189575195312
 21
32.30500411987305
  0
LINE
  5
27A
100
AcDbEntity
  8
0
  6
ByLayer
 62
  256
370
   -1
100
AcDbLine
 10
1.391189575195312
 20
32.30500411987305
 11
2.28142261505127
 21
33.63733291625977
  0
LINE
  5
27B
100
AcDbEntity
  8
0
  6
ByLayer
 62
  256
370
   -1
100
AcDbLine
 10
2.28142261505127
 20
33.63733291625977
 11
3.337943077087402
 21
34.84206390380859
  0
LINE
  5
27C
100
AcDbEntity
  8
0
  6
ByLayer
 62
  256
370
   -1
100
AcDbLine
 10
3.337943077087402
 20
34.84206390380859
 11
4.542673587799072
 21
35.89858245849609
  0
LINE
  5
27D
100
AcDbEntity
  8
0
  6
ByLayer
 62
  256
370
   -1
100
AcDbLine
 10
4.542673587799072
 20
35.89858245849609
 11
5.875000953674316
 21
36.78881454467773
  0
LINE
  5
27E
100
AcDbEntity
  8
0
  6
ByLayer
 62
  256
370
   -1
100
AcDbLine
 10
5.875000953674316
 20
36.78881454467773
 11
7.312129020690918
 21
37.49752807617188
  0
LINE
  5
27F
100
AcDbEntity
  8
0
  6
ByLayer
 62
  256
370
   -1
100
AcDbLine
 10
7.312129020690918
 20
37.49752807617188
 11
8.8294677734375
 21
38.01259613037109
  0
LINE
  5
280
100
AcDbEntity
  8
0
  6
ByLayer
 62
  256
370
   -1
100
AcDbLine
 10
8.8294677734375
 20
38.01259613037109
 11
10.40105533599854
 21
38.32520294189453
  0
LINE
  5
281
100
AcDbEntity
  8
0
  6
ByLayer
 62
  256
370
   -1
100
AcDbLine
 10
10.40105533599854
 20
38.32520294189453
 11
12.00000095367432
 21
38.43000411987305
  0
LINE
  5
282
100
AcDbEntity
  8
0
  6
ByLayer
 62
  256
370
   -1
100
AcDbLine
 10
12.00000095367432
 20
38.43000411987305
 11
13.59894752502441
 21
38.32520294189453
  0
LINE
  5
283
100
AcDbEntity
  8
0
  6
ByLayer
 62
  256
370
   -1
100
AcDbLine
 10
13.59894752502441
 20
38.32520294189453
 11
15.17053413391113
 21
38.01259613037109
  0
LINE
  5
284
100
AcDbEntity
  8
0
  6
ByLayer
 62
  256
370
   -1
100
AcDbLine
 10
15.17053413391113
 20
38.01259613037109
 11
16.68787384033203
 21
37.49752807617188
  0
LINE
  5
285
100
AcDbEntity
  8
0
  6
ByLayer
 62
  256
370
   -1
100
AcDbLine
 10
16.68787384033203
 20
37.49752807617188
 11
18.125
 21
36.78881454467773
  0
LINE
  5
286
100
AcDbEntity
  8
0
  6
ByLayer
 62
  256
370
   -1
100
AcDbLine
 10
18.125
 20
36.78881454467773
 11
19.45732879638672
 21
35.89858245849609
  0
LINE
  5
287
100
AcDbEntity
  8
0
  6
ByLayer
 62
  256
370
   -1
100
AcDbLine
 10
19.45732879638672
 20
35.89858245849609
 11
20.66205978393555
 21
34.84206008911133
  0
LINE
  5
288
100
AcDbEntity
  8
0
  6
ByLayer
 62
  256
370
   -1
100
AcDbLine
 10
20.66205978393555
 20
34.84206008911133
 11
21.71857833862305
 21
33.6373291015625
  0
LINE
  5
289
100
AcDbEntity
  8
0
  6
ByLayer
 62
  256
370
   -1
100
AcDbLine
 10
21.71857833862305
 20
33.6373291015625
 11
22.60881042480469
 21
32.30500411987305
  0
LINE
  5
28A
100
AcDbEntity
  8
0
  6
ByLayer
 62
  256
370
   -1
100
AcDbLine
 10
22.60881042480469
 20
32.30500411987305
 11
23.31752395629883
 21
30.86787414550781
  0
LINE
  5
28B
100
AcDbEntity
  8
0
  6
ByLayer
 62
  256
370
   -1
100
AcDbLine
 10
23.31752395629883
 20
30.86787414550781
 11
23.83259201049805
 21
29.35053634643555
  0
LINE
  5
28C
100
AcDbEntity
  8
0
  6
ByLayer
 62
  256
370
   -1
100
AcDbLine
 10
23.83259201049805
 20
29.35053634643555
 11
24.14519882202148
 21
27.77894973754883
  0
LINE
  5
28D
100
AcDbEntity
  8
0
  6
ByLayer
 62
  256
370
   -1
100
AcDbLine
 10
24.25
 20
26.18000221252441
 11
24.14519882202148
 21
27.77894973754883
  0
ENDSEC
  0
SECTION
  2
OBJECTS
  0
DICTIONARY
  5
C
330
0
100
AcDbDictionary
281
    1
  3
ACAD_GROUP
350
D
  0
DICTIONARY
  5
D
330
C
100
AcDbDictionary
281
    1
  0
PLOTSETTINGS
  5
28E
100
AcDbPlotSettings
  6
1x1
 40
0
 41
0
 42
0
 43
0
  0
ENDSEC
  0
EOF
